<?xml version="1.0" standalone="no"?>
<!DOCTYPE svg PUBLIC "-//W3C//DTD SVG 20010904//EN"
 "http://www.w3.org/TR/2001/REC-SVG-20010904/DTD/svg10.dtd">
<svg version="1.0" xmlns="http://www.w3.org/2000/svg"
 width="3004.000000pt" height="1000.000000pt" viewBox="0 0 3004.000000 1000.000000"
 preserveAspectRatio="xMidYMid meet">

<g transform="translate(0.000000,1000.000000) scale(0.100000,-0.100000)"
fill="#000000" stroke="none">
<path d="M4042 8208 c3 -101 6 -123 18 -123 10 0 17 14 20 45 l5 45 49 6 c56
6 86 34 86 79 0 46 -40 70 -117 70 l-64 0 3 -122z m116 70 c31 -31 8 -58 -49
-58 -25 0 -29 4 -29 28 0 16 3 32 7 35 11 11 58 8 71 -5z"/>
<path d="M4268 8324 c-9 -8 -11 -228 -2 -236 3 -3 14 -4 25 -1 15 4 19 14 19
54 0 37 4 49 15 49 18 0 46 -27 71 -69 20 -34 50 -49 67 -32 8 8 2 23 -21 56
l-31 45 24 24 c28 28 32 62 9 91 -12 16 -29 21 -92 23 -42 2 -80 0 -84 -4z
m136 -49 c11 -30 -5 -45 -50 -45 -42 0 -44 1 -44 30 0 29 2 30 44 30 30 0 46
-5 50 -15z"/>
<path d="M4564 8320 c-40 -16 -64 -59 -64 -115 0 -65 25 -100 80 -115 51 -14
114 10 135 51 20 37 19 109 -1 137 -31 44 -98 63 -150 42z m96 -50 c29 -29 27
-94 -5 -125 -29 -30 -54 -32 -83 -5 -28 26 -31 104 -5 132 21 24 68 23 93 -2z"/>
<path d="M4750 8323 c0 -5 18 -57 39 -118 36 -103 40 -110 67 -113 31 -3 29
-7 112 226 3 10 -3 13 -23 10 -25 -3 -30 -11 -53 -80 -15 -43 -29 -78 -33 -78
-4 0 -19 36 -34 80 -24 71 -29 80 -51 80 -13 0 -24 -3 -24 -7z"/>
<path d="M4998 8210 c-3 -119 -3 -120 20 -120 22 0 22 2 22 120 0 112 -1 120
-19 120 -18 0 -20 -9 -23 -120z"/>
<path d="M5090 8211 c0 -119 5 -136 33 -126 10 5 14 23 13 71 -1 36 2 68 5 70
4 2 26 -28 48 -66 34 -56 47 -70 66 -70 l25 0 0 120 c0 113 -1 120 -20 120
-18 0 -20 -7 -20 -75 0 -41 -4 -75 -9 -75 -5 0 -28 34 -50 75 -34 62 -46 75
-66 75 l-25 0 0 -119z"/>
<path d="M5372 8320 c-12 -5 -27 -21 -34 -35 -17 -37 14 -74 78 -94 58 -19 68
-49 22 -65 -24 -8 -32 -6 -56 17 -25 24 -30 25 -47 13 -18 -13 -18 -14 8 -40
38 -38 116 -39 155 -3 47 44 19 98 -64 122 -42 12 -55 20 -52 33 5 27 58 28
79 1 10 -14 22 -20 33 -16 22 9 20 24 -9 52 -25 26 -70 32 -113 15z"/>
<path d="M5567 8324 c-4 -4 -7 -58 -7 -121 l0 -113 25 0 26 0 -3 117 c-2 97
-6 118 -18 121 -9 1 -19 0 -23 -4z"/>
<path d="M5752 8208 l3 -123 64 2 c101 2 131 29 131 119 0 51 -21 98 -49 114
-11 5 -49 10 -86 10 l-66 0 3 -122z m130 65 c13 -12 18 -30 18 -69 0 -59 -21
-84 -72 -84 l-28 0 0 85 0 85 32 0 c17 0 40 -7 50 -17z"/>
<path d="M6000 8212 c0 -65 3 -121 6 -124 3 -3 13 -4 23 -1 13 3 17 11 13 29
-4 25 21 74 38 74 6 0 22 -22 38 -49 26 -49 64 -73 83 -54 5 5 -12 39 -37 77
l-46 68 41 42 c23 23 41 45 41 49 0 4 -13 7 -28 7 -22 0 -39 -12 -71 -50 -23
-27 -46 -50 -52 -50 -5 0 -9 23 -9 50 0 43 -3 50 -20 50 -19 0 -20 -7 -20
-118z"/>
<path d="M6240 8211 c0 -66 4 -122 9 -125 5 -4 16 -3 25 0 14 5 16 23 14 123
-3 112 -4 116 -25 119 -23 3 -23 2 -23 -117z"/>
<path d="M6520 8237 c0 -68 -4 -98 -14 -106 -16 -14 -46 -4 -46 14 0 18 -15
26 -34 19 -21 -8 -20 -27 2 -55 24 -29 87 -29 116 1 18 18 21 33 21 118 0 93
-1 97 -22 100 -22 3 -23 1 -23 -91z"/>
<path d="M6680 8327 c0 -1 -18 -54 -40 -117 -23 -63 -37 -117 -32 -122 14 -14
40 1 46 28 6 21 12 24 56 24 43 0 50 -3 62 -27 13 -26 43 -39 53 -23 2 4 -14
60 -37 124 l-41 116 -33 0 c-19 0 -34 -1 -34 -3z m48 -79 c6 -18 13 -41 17
-50 6 -15 1 -18 -30 -18 -34 0 -37 2 -31 25 9 36 25 75 30 75 3 0 9 -15 14
-32z"/>
<path d="M6867 8323 c-4 -3 -7 -57 -7 -119 0 -93 3 -113 16 -118 24 -9 34 2
34 38 0 29 24 66 42 66 4 0 19 -21 34 -47 15 -27 32 -51 37 -55 6 -3 33 -5 61
-4 44 2 51 6 59 29 8 24 14 27 58 27 44 0 50 -3 64 -30 15 -29 38 -39 49 -21
3 5 -12 60 -34 122 -22 62 -40 115 -40 116 0 2 -15 3 -34 3 l-33 0 -40 -112
c-22 -62 -45 -114 -50 -115 -6 -2 -29 26 -53 61 l-42 66 42 47 42 48 -28 3
c-24 3 -37 -5 -76 -47 -26 -28 -49 -51 -52 -51 -3 0 -6 23 -6 50 0 42 -3 50
-18 50 -10 0 -22 -3 -25 -7z m356 -90 c17 -49 14 -53 -26 -53 -31 0 -32 9 -7
76 13 32 14 31 33 -23z"/>
<path d="M7358 8324 c-11 -11 -10 -232 1 -238 23 -14 40 7 43 52 4 64 27 67
67 10 46 -65 47 -66 75 -61 l26 5 -35 50 -36 49 26 20 c28 23 33 64 11 94 -12
16 -29 20 -93 23 -43 2 -81 0 -85 -4z m137 -64 c0 -23 -4 -25 -47 -28 -48 -3
-48 -3 -48 28 0 31 0 31 48 28 43 -3 47 -5 47 -28z"/>
<path d="M7582 8313 c2 -12 14 -19 36 -21 l32 -3 0 -99 c0 -80 3 -99 16 -104
29 -11 34 4 34 105 l0 99 35 0 c28 0 35 4 35 20 0 19 -7 20 -96 20 -86 0 -95
-2 -92 -17z"/>
<path d="M7845 8318 c-2 -7 -20 -59 -41 -116 -36 -103 -37 -130 -2 -117 9 4
19 17 22 31 6 21 12 24 56 24 45 0 52 -3 60 -25 11 -28 36 -43 50 -29 5 5 -9
61 -32 127 l-40 117 -34 0 c-19 0 -36 -6 -39 -12z m64 -120 c1 -14 -7 -18 -30
-18 -28 0 -31 2 -25 25 3 13 11 37 17 52 l11 28 13 -35 c8 -19 14 -43 14 -52z"/>
<path d="M4698 7818 c-3 -99 -4 -103 -26 -106 -17 -3 -25 2 -29 18 -7 27 -48
24 -48 -4 0 -32 47 -60 90 -52 51 10 67 50 63 159 -3 76 -5 82 -25 85 -22 3
-22 0 -25 -100z"/>
<path d="M4855 7888 c-21 -50 -75 -199 -75 -209 0 -21 40 -7 52 19 11 23 20
27 61 30 45 3 48 2 58 -27 8 -23 17 -31 35 -31 13 0 24 2 24 5 0 13 -74 221
-83 233 -19 24 -56 14 -72 -20z m53 -50 c6 -18 13 -41 17 -50 6 -15 1 -18 -29
-18 -20 0 -36 1 -36 3 0 9 32 97 35 97 2 0 8 -15 13 -32z"/>
<path d="M5044 7907 c-2 -7 -3 -62 -2 -123 3 -104 4 -109 26 -112 19 -3 22 1
22 30 0 32 23 78 38 78 4 0 22 -25 40 -55 26 -43 39 -55 58 -55 33 0 31 11
-16 80 -22 32 -40 63 -40 67 0 5 18 27 40 48 47 45 49 55 15 55 -17 0 -42 -17
-80 -57 l-55 -58 0 58 c0 51 -2 57 -20 57 -11 0 -23 -6 -26 -13z"/>
<path d="M5355 7910 c-7 -11 -85 -228 -85 -235 0 -3 9 -5 20 -5 12 0 26 12 35
30 14 27 21 30 61 30 41 0 46 -3 55 -30 8 -22 17 -30 35 -30 13 0 24 2 24 5 0
13 -74 221 -83 233 -11 14 -53 16 -62 2z m48 -95 l16 -45 -35 0 c-32 0 -35 2
-28 23 13 41 23 67 28 67 2 0 11 -20 19 -45z"/>
<path d="M5538 7914 c-3 -5 -5 -61 -4 -124 1 -111 2 -115 24 -118 20 -3 22 0
22 47 0 47 2 51 24 51 18 0 32 -13 56 -50 24 -37 38 -50 56 -50 32 0 30 18 -5
68 l-30 40 25 16 c17 12 24 25 24 50 0 52 -28 70 -115 74 -40 2 -75 0 -77 -4z
m126 -40 c20 -8 21 -38 2 -53 -8 -7 -30 -11 -48 -9 -33 3 -46 23 -34 54 5 14
51 19 80 8z"/>
<path d="M5767 7913 c-17 -17 -4 -32 29 -35 l36 -3 2 -100 c1 -95 2 -100 23
-103 22 -3 22 0 25 100 l3 103 33 5 c18 3 33 8 32 13 0 4 0 12 0 17 0 11 -172
14 -183 3z"/>
<path d="M6021 7901 c-12 -22 -81 -213 -81 -223 0 -22 41 -5 55 22 14 27 21
30 61 30 41 0 46 -3 55 -30 8 -22 17 -30 35 -30 13 0 24 2 24 5 0 13 -74 221
-83 233 -14 18 -55 14 -66 -7z m47 -63 c6 -18 13 -40 17 -49 5 -13 -1 -18 -25
-21 -17 -3 -33 -1 -36 4 -5 8 25 98 32 98 2 0 7 -15 12 -32z"/>
<path d="M6298 7914 c-5 -4 -8 -61 -8 -126 l0 -118 75 0 c67 0 79 3 100 25 28
27 32 61 10 91 -12 17 -12 27 -2 53 10 28 9 34 -11 53 -17 18 -36 23 -89 26
-38 2 -71 0 -75 -4z m120 -43 c8 -5 12 -17 10 -27 -2 -14 -13 -20 -46 -22 -44
-3 -61 11 -48 43 6 16 62 20 84 6z m17 -110 c12 -38 -4 -52 -54 -49 -35 2 -47
7 -49 21 -7 36 6 47 52 47 35 0 46 -4 51 -19z"/>
<path d="M6595 7908 c-2 -7 -22 -62 -44 -121 -31 -87 -36 -109 -25 -114 22 -8
42 4 46 29 3 20 9 23 53 26 48 3 51 1 62 -28 8 -20 18 -30 32 -30 28 0 27 6
-18 135 -37 107 -38 110 -69 113 -20 2 -34 -2 -37 -10z m53 -87 c16 -52 17
-51 -22 -51 l-35 0 16 45 c8 25 18 45 22 45 4 0 13 -17 19 -39z"/>
<path d="M6780 7795 c0 -125 0 -126 23 -123 19 3 22 10 25 51 4 65 30 64 78
-3 26 -36 43 -50 60 -50 13 0 24 2 24 5 0 10 -49 83 -60 90 -6 4 2 18 21 36
26 24 30 34 24 57 -11 47 -29 57 -115 60 l-80 4 0 -127z m139 71 c22 -27 -4
-56 -49 -56 -39 0 -40 1 -40 35 0 34 1 35 39 35 21 0 44 -6 50 -14z"/>
<path d="M7085 7908 c-85 -235 -86 -238 -56 -238 12 0 23 11 30 31 10 29 13
30 58 27 41 -3 50 -7 61 -30 15 -32 52 -39 51 -10 0 9 -17 64 -38 122 -36 101
-39 105 -69 108 -20 2 -34 -2 -37 -10z m45 -63 c5 -14 13 -37 16 -50 6 -23 3
-25 -29 -25 l-35 0 16 50 c9 28 17 50 19 50 2 0 8 -11 13 -25z"/>
<path d="M7227 7913 c-18 -17 -4 -32 31 -35 l37 -3 3 -102 c2 -94 4 -103 22
-103 18 0 20 9 22 103 l3 102 33 5 c18 3 33 8 32 13 0 4 0 12 0 17 0 11 -172
14 -183 3z"/>
<path d="M14997 7584 c-3 -3 -45 -6 -93 -7 -85 -2 -89 -3 -104 -29 -11 -22
-12 -32 -4 -45 12 -18 18 -19 85 -7 26 4 44 0 70 -15 35 -21 124 -27 178 -12
32 9 49 36 36 57 -16 25 -153 72 -168 58z"/>
<path d="M15520 7564 c-44 -10 -91 -13 -146 -9 -64 5 -83 3 -93 -9 -15 -18 2
-56 25 -56 8 0 36 -9 61 -21 47 -21 59 -20 105 13 14 10 24 10 50 -1 18 -7 70
-18 115 -23 68 -8 87 -7 112 6 34 18 67 21 76 6 9 -15 89 -12 111 4 26 20 11
44 -48 74 -43 22 -46 23 -86 7 -38 -16 -44 -15 -114 4 -86 24 -82 24 -168 5z"/>
<path d="M17351 7560 c-28 -24 -50 -25 -89 -3 -36 20 -56 13 -82 -29 -30 -49
-26 -66 17 -74 49 -9 243 3 259 17 23 19 28 68 8 90 -23 25 -81 25 -113 -1z"/>
<path d="M16275 7565 c-5 -2 -23 -6 -38 -9 -25 -6 -28 -10 -25 -44 3 -33 7
-38 43 -50 38 -13 121 -11 159 4 26 10 20 60 -10 83 -24 19 -94 28 -129 16z"/>
<path d="M16800 7546 c-19 -13 -45 -26 -57 -30 -21 -7 -38 -34 -28 -44 20 -20
303 -30 349 -12 29 11 33 34 14 75 -14 32 -52 42 -92 26 -53 -22 -74 -24 -98
-7 -30 22 -47 20 -88 -8z"/>
<path d="M17716 7554 c-29 -28 -32 -65 -6 -86 42 -34 90 -18 90 32 0 56 -50
89 -84 54z"/>
<path d="M15945 7235 c-35 -29 -53 -31 -81 -10 -43 33 -100 -2 -92 -57 3 -22
6 -23 123 -26 150 -4 160 -1 175 44 10 30 9 38 -6 55 -25 27 -81 25 -119 -6z"/>
<path d="M16540 7241 c-16 -31 -12 -86 8 -104 15 -13 48 -14 278 -7 144 4 281
6 305 3 65 -7 99 9 99 47 0 36 -31 70 -63 70 -13 0 -36 -13 -52 -30 -16 -16
-33 -30 -39 -30 -5 0 -24 16 -42 35 -38 41 -86 47 -127 15 -30 -24 -55 -25
-81 -5 -28 21 -54 18 -88 -10 -38 -32 -50 -31 -91 5 -41 36 -91 41 -107 11z"/>
<path d="M16295 7225 c-46 -45 -21 -88 49 -83 36 3 41 6 44 29 3 28 -31 79
-54 79 -8 0 -26 -11 -39 -25z"/>
<path d="M15390 7205 c-47 -49 -33 -59 93 -65 166 -8 203 6 181 67 -7 22 -17
29 -42 31 -19 2 -44 -4 -57 -12 -30 -20 -56 -20 -81 -1 -31 23 -58 18 -94 -20z"/>
<path d="M4228 7132 c-60 -3 -68 -5 -68 -22 0 -17 7 -20 45 -20 25 0 45 -4 45
-9 0 -5 -11 -31 -25 -58 -13 -26 -27 -67 -31 -90 -6 -39 -5 -43 15 -43 15 0
22 8 26 28 14 67 27 102 50 136 24 36 32 72 18 78 -5 2 -38 2 -75 0z"/>
<path d="M4422 7101 c-44 -39 -59 -81 -23 -61 37 19 41 12 41 -70 0 -73 2 -80
20 -80 19 0 20 7 20 119 0 66 -4 122 -8 125 -5 3 -27 -12 -50 -33z"/>
<path d="M4627 7129 c-27 -7 -56 -34 -57 -52 0 -19 33 -18 55 3 20 19 27 21
40 10 24 -20 18 -43 -26 -85 -40 -39 -69 -83 -69 -105 0 -6 31 -10 81 -10 78
0 80 1 77 23 -2 18 -10 23 -45 25 -24 2 -43 5 -43 6 0 2 20 24 45 48 49 49 56
79 27 114 -21 26 -48 33 -85 23z"/>
<path d="M5253 7133 c-42 -4 -42 -4 -48 -51 -4 -26 -9 -55 -12 -66 -5 -17 -1
-18 46 -11 57 8 69 -3 57 -50 -7 -28 -36 -34 -56 -10 -16 19 -50 19 -50 0 0
-23 42 -55 73 -55 36 0 87 49 87 83 0 36 -43 77 -80 77 -16 0 -30 4 -30 8 0
18 26 32 57 32 22 0 36 6 40 16 6 16 -13 35 -32 32 -5 -1 -29 -3 -52 -5z"/>
<path d="M5455 7131 c-45 -19 -60 -49 -60 -123 0 -64 2 -72 28 -94 36 -31 77
-31 107 1 49 52 9 142 -57 131 -37 -5 -44 11 -17 38 19 20 19 20 38 0 19 -19
58 -10 49 12 -4 12 -55 46 -65 43 -2 0 -12 -4 -23 -8z m47 -146 c12 -27 -2
-55 -28 -55 -23 0 -40 46 -24 65 18 22 39 18 52 -10z"/>
<path d="M5613 7133 c-7 -3 -13 -13 -13 -24 0 -16 7 -19 45 -19 25 0 45 -4 45
-9 0 -5 -11 -33 -24 -62 -14 -30 -28 -71 -32 -92 -6 -37 -5 -39 17 -35 19 2
25 11 31 47 7 43 24 82 64 148 10 17 16 34 14 36 -7 7 -133 15 -147 10z"/>
<path d="M5863 7132 c-24 -4 -53 -37 -53 -61 0 -8 7 -22 15 -31 14 -15 14 -18
0 -30 -22 -18 -19 -76 5 -100 26 -26 80 -26 108 0 25 24 30 81 8 99 -12 10
-12 16 2 40 15 26 15 30 0 53 -17 26 -46 36 -85 30z m35 -41 c19 -11 11 -45
-11 -49 -19 -4 -32 20 -23 43 6 17 15 19 34 6z m17 -111 c7 -23 -10 -50 -30
-50 -20 0 -37 27 -30 50 4 13 15 20 30 20 15 0 26 -7 30 -20z"/>
<path d="M6270 7130 c-76 -18 -79 -217 -4 -236 65 -17 99 25 99 121 0 91 -32
130 -95 115z m50 -110 c0 -71 -7 -90 -30 -90 -24 0 -30 19 -30 90 0 46 4 61
17 69 29 16 43 -6 43 -69z"/>
<path d="M6473 7101 c-51 -46 -56 -65 -13 -56 l30 7 0 -82 c0 -79 1 -81 23
-78 21 3 22 6 22 122 0 71 -4 121 -10 122 -5 2 -29 -14 -52 -35z"/>
<path d="M6685 7133 c-26 -7 -55 -32 -55 -50 0 -24 30 -27 51 -4 24 25 23 25
43 5 23 -23 21 -30 -33 -87 -43 -47 -71 -86 -71 -101 0 -3 36 -6 80 -6 79 0
80 0 80 25 0 23 -4 25 -40 25 -22 0 -40 3 -40 6 0 4 18 24 40 45 31 30 40 47
40 72 0 49 -45 82 -95 70z"/>
<path d="M6890 7133 c-24 -9 -50 -35 -50 -50 0 -18 30 -16 51 3 10 9 23 13 28
9 18 -10 12 -44 -9 -55 -27 -14 -25 -29 4 -40 32 -12 39 -25 26 -50 -13 -23
-48 -27 -56 -5 -7 17 -40 20 -49 5 -11 -17 42 -60 73 -60 44 0 82 35 82 75 0
22 -6 38 -17 44 -15 8 -16 13 -5 30 6 12 12 29 12 39 0 34 -56 67 -90 55z"/>
<path d="M3766 7114 c-9 -8 -16 -20 -16 -25 0 -19 31 -21 50 -4 10 9 24 14 29
10 18 -10 13 -39 -9 -53 -27 -17 -25 -31 6 -42 20 -8 25 -16 22 -38 -3 -31
-44 -45 -54 -18 -8 20 -54 21 -54 2 0 -22 49 -56 82 -56 35 0 78 39 78 71 0
13 -9 32 -20 44 -18 20 -19 23 -5 35 37 31 -1 90 -59 90 -19 0 -42 -7 -50 -16z"/>
<path d="M3998 7095 c-46 -43 -49 -59 -8 -50 l30 7 0 -82 c0 -79 1 -81 23 -78
21 3 22 7 25 121 3 135 -4 143 -70 82z"/>
<path d="M4799 7109 c-31 -31 -9 -49 30 -26 26 15 30 15 41 2 11 -13 9 -20 -9
-38 -27 -30 -27 -45 2 -49 31 -4 32 -62 1 -66 -11 -2 -27 4 -34 13 -16 19 -50
20 -50 1 0 -8 12 -24 27 -36 70 -55 178 36 113 95 -17 16 -18 20 -5 38 20 29
19 43 -5 67 -27 27 -83 27 -111 -1z"/>
<path d="M5020 7053 c-64 -100 -64 -111 -2 -115 40 -3 47 -6 50 -25 4 -30 42
-32 42 -3 0 11 7 23 15 26 8 4 15 12 15 19 0 7 -7 15 -15 19 -11 4 -15 23 -15
81 0 68 -2 75 -20 75 -14 0 -35 -23 -70 -77z m50 -38 c0 -31 -3 -35 -25 -35
-14 0 -25 3 -25 6 0 8 40 64 46 64 2 0 4 -16 4 -35z"/>
<path d="M6021 7104 c-12 -15 -21 -39 -21 -53 0 -48 47 -86 87 -70 24 9 30 -2
17 -35 -7 -18 -39 -22 -49 -6 -9 15 -45 12 -45 -3 0 -22 34 -47 63 -47 14 0
39 11 54 24 26 23 28 29 28 101 0 69 -3 79 -24 96 -35 28 -85 25 -110 -7z m85
-41 c8 -29 -16 -59 -40 -50 -19 8 -22 73 -3 80 21 7 37 -4 43 -30z"/>
<path d="M1665 7088 c-3 -8 -4 -61 -3 -119 2 -84 6 -104 18 -104 11 0 16 17
20 70 l6 70 17 -37 c9 -21 24 -54 31 -73 12 -27 21 -35 41 -35 l26 0 -3 118
c-2 96 -6 117 -18 117 -12 0 -16 -17 -20 -75 l-5 -75 -23 50 c-36 83 -47 100
-65 103 -9 2 -19 -3 -22 -10z"/>
<path d="M1912 7083 c2 -10 13 -19 26 -21 22 -3 23 -7 20 -85 -3 -76 -5 -82
-25 -85 -13 -2 -23 -10 -23 -18 0 -11 17 -14 75 -14 58 0 75 3 75 14 0 9 -12
16 -27 18 -28 3 -28 4 -31 85 l-3 82 28 3 c17 2 28 9 28 18 0 12 -16 16 -73
18 -66 3 -73 1 -70 -15z"/>
<path d="M2156 7093 c-3 -3 -6 -57 -6 -120 0 -94 3 -113 15 -113 10 0 15 11
15 35 0 19 3 35 6 35 4 0 26 -16 50 -35 23 -19 47 -35 53 -35 26 0 7 33 -38
67 -28 21 -50 43 -50 49 -1 6 21 28 49 50 27 21 49 44 50 51 0 26 -21 22 -58
-12 -48 -43 -62 -44 -62 -6 0 30 -12 46 -24 34z"/>
<path d="M8137 7083 c-3 -5 -5 -695 -6 -1535 l-1 -1528 166 0 165 0 25 55 c13
31 24 62 24 70 0 8 7 29 15 47 8 18 35 103 61 188 55 184 120 356 170 451 41
77 112 159 138 159 15 0 17 -7 11 -57 -6 -54 -5 -57 9 -39 9 11 16 25 16 32 0
16 51 28 60 14 4 -6 11 -10 16 -8 5 1 49 -17 97 -41 79 -39 97 -44 160 -45 81
-1 118 15 251 104 51 35 79 47 94 43 22 -5 24 -14 26 -115 1 -42 17 -38 33 7
9 26 12 58 8 93 -4 28 -4 52 -2 52 9 0 54 -84 67 -124 8 -26 38 -65 81 -109
56 -56 69 -75 69 -100 -1 -55 -62 -393 -85 -467 -19 -60 -36 -193 -26 -203 4
-4 158 -6 342 -5 l334 3 0 258 c0 141 -1 831 -3 1532 l-2 1275 -1154 0 c-635
0 -1157 -3 -1159 -7z m1315 -730 c26 -4 63 -23 102 -52 34 -26 77 -54 97 -63
38 -18 59 -39 79 -76 11 -22 10 -23 -9 -17 -26 8 -26 2 -2 -33 102 -148 124
-208 118 -322 -2 -47 -9 -103 -15 -125 -23 -86 -41 -183 -47 -254 -8 -104 -54
-197 -137 -279 -34 -34 -67 -62 -74 -62 -6 0 -32 -24 -58 -52 -80 -89 -90 -98
-134 -120 -53 -25 -131 -27 -202 -3 -35 12 -63 31 -97 68 -26 28 -88 92 -138
142 -49 50 -99 103 -110 119 -35 50 -63 129 -69 195 -3 35 -9 68 -12 73 -6 10
-31 204 -38 298 -5 60 27 142 74 194 20 23 41 48 46 58 5 9 56 52 114 96 87
66 130 91 250 141 80 34 156 68 170 76 14 8 31 12 38 10 8 -3 32 -8 54 -12z
m-872 -457 c0 -3 -4 -8 -10 -11 -5 -3 -10 -1 -10 4 0 6 5 11 10 11 6 0 10 -2
10 -4z"/>
<path d="M9465 5971 c-82 -20 -115 -36 -115 -56 0 -23 16 -26 60 -10 106 37
191 39 277 4 70 -28 41 29 -32 62 -49 23 -99 23 -190 0z"/>
<path d="M8840 5961 c-34 -18 -69 -65 -58 -76 3 -3 27 6 53 20 56 29 125 33
201 10 65 -20 86 -19 82 2 -6 34 -66 57 -157 60 -70 3 -93 0 -121 -16z"/>
<path d="M8915 5850 c-3 -5 -14 -10 -23 -10 -9 0 -28 -9 -42 -20 l-25 -20 25
-20 c21 -17 39 -20 117 -19 74 1 91 4 86 15 -3 8 0 20 6 28 16 19 -5 34 -69
46 -65 12 -67 12 -75 0z m45 -50 c0 -11 -7 -20 -15 -20 -8 0 -15 9 -15 20 0
11 7 20 15 20 8 0 15 -9 15 -20z"/>
<path d="M9452 5834 c-28 -19 -28 -34 -1 -34 11 0 23 -8 25 -17 7 -26 165 -26
190 -1 17 16 16 18 -2 24 -10 4 -31 16 -46 26 -34 23 -134 25 -166 2z m128
-34 c0 -5 -5 -10 -11 -10 -5 0 -7 5 -4 10 3 6 8 10 11 10 2 0 4 -4 4 -10z"/>
<path d="M9084 5789 c-3 -6 0 -15 7 -20 23 -14 30 -10 19 11 -12 23 -16 24
-26 9z"/>
<path d="M9407 5783 c-15 -14 -5 -23 25 -23 30 0 31 1 12 15 -22 16 -28 18
-37 8z"/>
<path d="M9158 5433 c7 -3 16 -2 19 1 4 3 -2 6 -13 5 -11 0 -14 -3 -6 -6z"/>
<path d="M9315 5430 c-4 -6 3 -10 14 -10 25 0 27 6 6 13 -8 4 -17 2 -20 -3z"/>
<path d="M9034 5280 c20 -22 36 -48 36 -59 0 -37 72 -102 112 -101 12 1 -2 15
-61 61 -31 25 -22 34 15 14 17 -9 52 -14 84 -14 l55 2 -45 6 c-61 9 -140 54
-140 80 0 8 40 10 150 7 83 -2 150 0 150 5 0 10 -33 13 -90 10 -19 -1 -69 3
-110 8 -41 6 -102 13 -134 16 l-59 6 37 -41z"/>
<path d="M9430 5281 c-21 -6 -22 -8 -7 -14 9 -3 17 -10 17 -16 0 -7 -77 -49
-120 -64 -8 -3 -3 -6 12 -6 15 -1 30 4 33 9 3 6 15 10 26 10 15 0 11 -7 -21
-36 -52 -47 -51 -62 1 -32 49 27 66 53 48 74 -7 9 -8 14 -1 14 14 0 72 49 72
61 0 10 -23 10 -60 0z"/>
<path d="M3450 7030 c0 -27 3 -30 30 -30 27 0 30 3 30 30 0 27 -3 30 -30 30
-27 0 -30 -3 -30 -30z"/>
<path d="M3457 6954 c-13 -13 -7 -52 8 -58 27 -10 46 5 43 33 -3 26 -35 41
-51 25z"/>
<path d="M16170 6629 c-12 -22 -6 -65 12 -86 14 -17 43 -16 78 2 26 14 33 13
65 -2 30 -15 42 -15 80 -5 25 7 63 12 85 12 33 0 42 4 49 23 5 13 5 30 -1 41
-8 15 -17 17 -49 12 -25 -4 -52 -1 -80 10 -32 13 -50 15 -83 7 -24 -5 -51 -6
-62 -2 -39 15 -83 10 -94 -12z"/>
<path d="M22007 6643 c-11 -10 -8 -161 3 -168 6 -4 10 17 10 54 0 34 4 61 9
61 4 0 20 -27 35 -60 15 -33 31 -60 37 -60 5 0 8 38 7 88 -1 80 -2 83 -7 29
-3 -31 -10 -58 -15 -58 -5 0 -20 27 -34 60 -23 59 -31 68 -45 54z"/>
<path d="M1656 6633 c-3 -3 -6 -39 -6 -80 0 -57 3 -73 14 -73 10 0 16 14 18
43 l3 42 30 -44 c17 -25 35 -46 42 -48 12 -4 22 91 15 135 -7 37 -22 25 -22
-18 0 -50 -13 -51 -44 -1 -27 43 -40 54 -50 44z"/>
<path d="M3857 6633 c-4 -3 -7 -39 -7 -80 0 -58 3 -73 15 -73 11 0 15 11 15
40 0 22 4 40 9 40 5 0 12 -18 16 -40 5 -30 12 -40 25 -40 13 0 20 10 25 40 9
52 23 51 27 -2 5 -70 23 -44 26 37 2 61 0 76 -13 81 -22 9 -44 -13 -51 -52 -8
-43 -20 -44 -29 -1 -11 49 -37 72 -58 50z"/>
<path d="M4046 6633 c-3 -3 -6 -39 -6 -80 0 -58 3 -73 15 -73 12 0 15 15 15
74 0 69 -8 95 -24 79z"/>
<path d="M4117 6633 c-4 -3 -7 -39 -7 -80 0 -58 3 -73 15 -73 10 0 15 10 15
30 0 19 5 30 14 30 8 0 24 -13 36 -30 17 -24 29 -30 60 -30 24 0 40 5 44 15 3
9 19 15 41 15 24 0 35 -4 35 -15 0 -9 9 -15 21 -15 11 0 19 3 17 8 -1 4 -14
37 -28 74 -38 103 -65 103 -99 -2 -12 -39 -26 -70 -30 -70 -5 0 -16 12 -26 26
-15 23 -15 27 -1 43 22 24 20 47 -6 65 -22 16 -89 22 -101 9z m81 -45 c3 -14
-3 -18 -27 -18 -25 0 -31 4 -31 21 0 16 5 20 27 17 17 -2 29 -10 31 -20z m146
-15 c8 -21 -10 -41 -24 -27 -11 11 -3 44 10 44 4 0 11 -8 14 -17z"/>
<path d="M4500 6622 c-33 -27 -19 -58 31 -73 21 -7 39 -18 39 -25 0 -20 -32
-26 -50 -9 -20 18 -40 20 -40 2 0 -23 23 -37 60 -37 36 0 70 23 70 47 0 16
-32 41 -63 48 -15 4 -30 11 -33 16 -10 16 27 22 52 9 33 -18 44 -3 15 21 -29
24 -52 24 -81 1z"/>
<path d="M4646 6632 c-2 -4 -6 -39 -7 -77 l-3 -70 62 -3 c36 -2 62 1 62 7 0 5
-21 11 -47 13 -35 2 -48 7 -48 18 0 10 13 16 43 18 28 2 42 8 42 17 0 9 -14
15 -42 17 -30 2 -43 8 -43 18 0 11 13 16 48 18 47 3 61 15 31 26 -23 9 -92 7
-98 -2z"/>
<path d="M4777 6634 c-14 -14 -7 -24 18 -24 24 0 25 -2 25 -65 0 -50 3 -65 15
-65 10 0 15 16 17 63 3 56 5 62 26 65 13 2 21 9 19 15 -4 13 -108 22 -120 11z"/>
<path d="M4930 6571 c0 -39 0 -74 -1 -78 0 -5 7 -9 16 -11 14 -3 15 7 13 74
-2 51 -7 79 -15 82 -10 3 -13 -15 -13 -67z"/>
<path d="M5031 6626 c-11 -13 -51 -121 -51 -138 0 -14 28 -9 34 7 3 9 19 15
41 15 24 0 35 -4 35 -15 0 -9 9 -15 21 -15 16 0 19 4 14 18 -4 9 -16 42 -27
72 -26 69 -44 84 -67 56z m33 -52 c9 -25 7 -34 -8 -34 -19 0 -28 14 -20 34 8
20 20 20 28 0z"/>
<path d="M5134 6599 c14 -87 26 -119 45 -119 14 0 22 12 31 50 7 27 15 48 20
45 4 -2 13 -25 20 -50 9 -32 18 -45 30 -45 23 0 59 135 42 152 -8 8 -14 4 -22
-16 -5 -15 -10 -36 -10 -46 0 -38 -18 -29 -29 15 -6 24 -16 47 -21 50 -17 11
-37 -13 -44 -50 -9 -47 -20 -44 -32 7 -5 23 -15 44 -23 46 -11 4 -13 -4 -7
-39z"/>
<path d="M5383 6628 c-6 -7 -18 -38 -28 -68 -10 -30 -20 -61 -23 -67 -2 -7 3
-13 12 -13 9 0 19 7 22 15 4 9 19 15 39 15 20 0 35 -6 39 -15 7 -18 36 -20 35
-2 0 6 -13 41 -27 77 -27 64 -49 83 -69 58z m37 -70 c0 -10 -7 -18 -15 -18
-16 0 -19 17 -9 45 5 13 8 14 15 3 5 -7 9 -21 9 -30z"/>
<path d="M5507 6633 c-4 -3 -7 -39 -7 -80 0 -58 3 -73 15 -73 11 0 15 11 15
40 0 22 4 40 8 40 5 0 18 -18 31 -40 14 -25 29 -40 42 -40 17 0 19 8 19 81 0
60 -3 80 -12 77 -7 -3 -14 -23 -16 -46 -2 -23 -6 -42 -10 -42 -4 0 -19 21 -34
45 -26 44 -38 52 -51 38z"/>
<path d="M15699 6619 c-8 -16 -8 -28 0 -45 9 -21 18 -24 60 -24 26 0 67 -6 89
-14 38 -14 43 -13 63 3 20 16 21 23 13 51 -15 52 -36 59 -89 31 l-44 -23 -27
21 c-34 27 -50 27 -65 0z"/>
<path d="M18044 6633 c-26 -2 -49 -12 -60 -25 -18 -19 -19 -62 -25 -942 -3
-574 -10 -981 -18 -1081 -14 -194 -9 -258 25 -292 24 -24 30 -25 119 -21 120
4 135 16 171 138 84 283 154 456 207 512 32 34 67 43 108 29 45 -16 108 -14
115 3 8 20 -55 140 -111 211 -98 126 -144 268 -136 420 2 53 14 62 56 42 40
-19 135 -23 166 -7 24 13 26 68 4 110 -12 23 -28 33 -70 45 -62 18 -69 26 -61
60 14 55 295 211 400 222 49 5 54 3 104 -37 58 -45 87 -85 102 -142 15 -54 1
-74 -57 -82 -26 -3 -66 -17 -88 -29 -37 -21 -40 -26 -43 -71 -4 -65 15 -86 78
-86 57 0 89 22 105 71 15 43 39 48 61 14 26 -39 22 -147 -11 -290 -32 -142
-37 -154 -125 -270 -101 -134 -101 -143 7 -165 81 -16 109 -34 163 -105 l45
-59 -1 -80 c-1 -45 -13 -138 -28 -208 -26 -128 -32 -194 -18 -214 19 -29 56
-34 254 -34 229 0 240 3 258 68 14 53 12 242 -5 417 -11 118 -15 328 -15 988
0 527 -4 845 -10 857 -5 10 -23 22 -39 28 -28 10 -1530 14 -1627 5z"/>
<path d="M22217 6633 c20 -4 22 -11 26 -76 l3 -72 2 72 c2 66 4 72 25 76 12 2
0 4 -28 4 -27 0 -40 -2 -28 -4z"/>
<path d="M28503 6633 c33 -4 37 -7 33 -26 -3 -12 -3 -16 0 -9 5 10 9 10 20 1
12 -10 13 -8 8 7 -6 17 -5 18 7 3 8 -9 21 -19 29 -22 11 -4 10 -6 -4 -6 -15
-1 -17 -6 -12 -32 3 -16 12 -36 19 -43 7 -8 24 -71 36 -140 18 -98 21 -134 13
-159 -5 -18 -10 -24 -11 -14 -1 9 -7 17 -15 17 -18 0 -33 -60 -17 -70 19 -11
33 -187 35 -417 0 -117 4 -213 9 -213 4 0 7 -7 7 -16 0 -8 -4 -13 -9 -10 -5 4
-5 -10 0 -32 6 -28 5 -40 -5 -47 -15 -11 -10 -65 5 -65 5 0 9 -7 9 -15 0 -8
-9 -15 -20 -15 -15 0 -20 7 -20 25 0 14 -13 67 -29 118 -37 115 -75 263 -111
433 -34 157 -48 200 -99 303 -52 102 -121 173 -208 214 -66 31 -72 32 -208 31
-138 0 -232 -15 -220 -34 4 -6 1 -10 -6 -10 -7 0 -10 -3 -6 -6 3 -3 20 1 38
10 23 12 35 13 45 5 10 -8 23 -8 46 0 33 11 52 8 115 -20 24 -9 31 -18 28 -30
-3 -10 -1 -20 5 -24 21 -13 10 -26 -12 -14 -22 12 -23 11 -5 -8 17 -20 17 -20
-10 -16 -15 2 -34 5 -40 5 -7 1 -13 5 -13 10 0 14 -39 9 -71 -11 -21 -13 -27
-21 -19 -26 9 -6 8 -10 -4 -17 -22 -13 -20 -26 6 -30 33 -5 32 -23 -4 -40 -20
-10 -26 -17 -16 -17 22 -1 41 -34 27 -48 -7 -7 -2 -13 17 -17 21 -6 32 -3 43
12 9 11 28 22 43 26 15 3 33 12 40 19 7 8 26 17 42 21 52 13 57 32 30 107 -28
78 -29 86 -9 69 8 -7 15 -20 15 -29 0 -9 7 -26 15 -37 22 -32 34 -101 24 -137
-10 -34 10 -67 41 -67 15 0 70 -51 70 -66 0 -3 11 -20 24 -37 15 -20 26 -51
30 -83 3 -32 15 -66 31 -89 38 -56 39 -152 4 -368 -23 -148 -45 -214 -94 -283
-36 -50 -43 -78 -24 -90 6 -4 26 -39 44 -78 20 -44 51 -88 79 -116 31 -30 46
-52 46 -70 0 -28 -30 -198 -55 -310 -32 -143 -34 -155 -35 -182 l0 -28 260 0
260 0 0 1180 0 1180 -163 -2 c-89 -1 -145 -3 -124 -5z m154 -545 c-2 -13 -4
-5 -4 17 -1 22 1 32 4 23 2 -10 2 -28 0 -40z m-261 -543 c-7 -18 -26 -20 -26
-2 0 18 24 41 28 27 2 -6 1 -17 -2 -25z m260 -280 c-1 -33 -16 -33 -16 0 0 14
4 25 9 25 5 0 8 -11 7 -25z m14 -86 c0 -5 -4 -9 -10 -9 -5 0 -10 7 -10 16 0 8
5 12 10 9 6 -3 10 -10 10 -16z m7 -71 c-3 -8 -6 -5 -6 6 -1 11 2 17 5 13 3 -3
4 -12 1 -19z"/>
<path d="M15536 6609 c-35 -27 -33 -54 4 -69 63 -26 116 24 75 70 -23 26 -46
25 -79 -1z"/>
<path d="M12980 6585 c-15 -18 -4 -52 20 -60 26 -8 40 1 40 29 0 40 -36 60
-60 31z"/>
<path d="M1817 6583 c-16 -16 -5 -24 24 -18 24 6 30 4 27 -6 -3 -8 -13 -16
-24 -17 -29 -5 -45 -31 -33 -53 8 -15 19 -18 52 -15 41 4 42 4 43 42 1 56 -11
74 -50 74 -18 0 -36 -3 -39 -7z m57 -62 c8 -12 -21 -34 -34 -26 -8 5 -8 11 1
21 13 16 25 18 33 5z"/>
<path d="M1939 6580 c-5 -22 3 -96 11 -104 6 -6 10 -6 11 0 0 5 2 25 5 44 9
70 44 65 44 -6 0 -60 23 -54 30 7 7 61 33 61 40 -1 6 -55 24 -55 28 1 5 60 -7
68 -94 66 -41 -1 -75 -4 -75 -7z"/>
<path d="M2147 6583 c-16 -16 -5 -24 24 -18 24 5 30 4 27 -6 -2 -7 -15 -16
-28 -19 -32 -8 -47 -34 -31 -54 9 -11 26 -15 54 -12 l41 4 -3 48 c-1 27 -5 52
-7 56 -6 10 -68 11 -77 1z m53 -67 c0 -18 -17 -29 -30 -21 -8 5 -7 11 1 21 15
18 29 18 29 0z"/>
<path d="M3717 6584 c-8 -8 1 -24 14 -24 5 0 9 7 9 15 0 15 -12 20 -23 9z"/>
<path d="M3717 6494 c-8 -8 1 -24 14 -24 5 0 9 7 9 15 0 15 -12 20 -23 9z"/>
<path d="M27797 6384 c-8 -8 1 -24 12 -24 4 0 8 7 8 15 0 16 -9 20 -20 9z"/>
<path d="M1640 6335 c0 -10 7 -15 18 -13 14 3 18 -7 22 -61 3 -39 10 -66 18
-69 12 -4 16 15 12 76 -2 38 15 63 36 55 8 -3 14 1 14 11 0 13 -12 16 -60 16
-47 0 -60 -3 -60 -15z"/>
<path d="M2445 6280 c-11 -45 -22 -70 -31 -70 -8 0 -14 3 -15 8 0 4 -2 16 -4
27 -2 11 3 27 12 37 14 16 14 18 -1 24 -9 3 -16 12 -16 20 0 23 -16 16 -29
-12 -8 -19 -9 -30 0 -40 6 -7 8 -18 5 -23 -4 -6 -4 -22 0 -36 5 -21 12 -25 44
-25 l38 0 13 60 c17 77 18 79 52 73 26 -5 27 -7 27 -69 0 -50 3 -64 15 -64 12
0 15 14 15 64 0 59 2 65 22 68 12 2 23 9 26 16 3 9 -17 12 -76 12 l-80 0 -17
-70z"/>
<path d="M2787 6343 c-4 -3 -7 -39 -7 -80 0 -58 3 -73 15 -73 12 0 15 16 15
80 0 73 -6 91 -23 73z"/>
<path d="M2910 6270 l0 -80 56 0 c40 0 54 3 51 13 -2 6 -19 12 -38 12 l-34 1
-3 67 c-2 51 -6 67 -17 67 -12 0 -15 -17 -15 -80z"/>
<path d="M3174 6336 c-3 -7 -4 -42 -2 -76 4 -75 25 -95 30 -28 2 36 7 44 26
46 20 3 22 -1 22 -42 0 -34 4 -46 15 -46 11 0 15 12 15 50 0 52 -15 70 -55 67
-14 -1 -21 5 -23 21 -4 24 -20 30 -28 8z"/>
<path d="M3315 6341 c-6 -11 9 -23 19 -14 9 9 7 23 -3 23 -6 0 -12 -4 -16 -9z"/>
<path d="M4023 6338 c-18 -23 -57 -148 -49 -155 4 -5 16 2 26 15 24 29 70 30
88 1 9 -14 17 -18 23 -12 7 7 0 34 -17 79 -33 82 -50 99 -71 72z m37 -75 c0
-7 -9 -13 -20 -13 -23 0 -24 4 -9 32 9 17 13 18 20 7 5 -8 9 -20 9 -26z"/>
<path d="M4156 6343 c-3 -3 -6 -42 -6 -85 0 -59 3 -79 13 -76 6 3 14 17 17 33
7 41 25 41 49 1 19 -30 27 -35 57 -33 22 2 40 10 45 20 14 24 65 22 79 -3 13
-25 30 -26 30 -1 0 22 -39 121 -55 139 -21 23 -42 2 -66 -69 -13 -38 -27 -69
-31 -69 -4 0 -19 18 -34 41 l-26 41 27 28 c15 16 22 30 17 34 -16 9 -39 -3
-57 -30 -20 -31 -35 -31 -35 0 0 26 -12 40 -24 29z m224 -52 c0 -5 3 -16 6
-25 4 -12 0 -16 -15 -16 -22 0 -25 8 -15 34 7 17 24 22 24 7z"/>
<path d="M4474 6337 c-9 -24 0 -152 11 -150 6 1 12 13 13 25 7 44 22 45 57 3
24 -28 37 -37 45 -29 7 7 4 18 -11 38 -20 25 -20 28 -5 45 22 24 20 47 -6 65
-28 20 -97 21 -104 3z m93 -41 c-6 -18 -67 -20 -67 -2 0 8 5 16 12 18 21 7 59
-4 55 -16z"/>
<path d="M4627 6343 c-13 -12 -7 -22 16 -25 19 -3 23 -10 27 -66 3 -34 10 -62
15 -62 6 0 12 28 15 62 4 56 7 63 28 66 13 2 21 9 19 15 -4 13 -109 22 -120
10z"/>
<path d="M4796 6342 c-20 -33 -55 -147 -47 -155 6 -6 14 -1 23 12 18 29 64 28
88 -1 10 -13 22 -20 26 -15 8 7 -17 87 -43 140 -13 26 -36 36 -47 19z m34 -73
c0 -10 -7 -19 -15 -19 -15 0 -21 31 -9 43 11 10 24 -3 24 -24z"/>
<path d="M5078 6326 c-33 -26 -37 -46 -8 -39 18 5 20 0 20 -52 0 -41 3 -56 13
-53 14 5 23 146 10 159 -4 4 -20 -2 -35 -15z"/>
<path d="M5192 6343 c-22 -9 -34 -41 -22 -62 7 -13 7 -22 0 -26 -18 -11 -11
-44 14 -60 40 -27 105 15 76 50 -5 7 -7 26 -4 42 5 25 1 34 -17 47 -25 17 -27
17 -47 9z m38 -48 c0 -8 -6 -15 -14 -15 -17 0 -28 14 -19 24 12 12 33 6 33 -9z
m0 -59 c0 -20 -19 -31 -32 -18 -6 6 -7 15 -4 21 10 16 36 13 36 -3z"/>
<path d="M5384 6325 c-23 -23 -26 -32 -21 -67 7 -51 40 -88 65 -72 48 30 52
121 5 151 -20 14 -24 13 -49 -12z m52 -41 c4 -14 1 -37 -5 -51 -22 -47 -54 10
-35 61 9 25 33 19 40 -10z"/>
<path d="M5524 6340 c-22 -8 -39 -38 -29 -49 3 -3 15 0 25 7 51 32 54 -7 5
-55 -50 -48 -46 -63 15 -63 38 0 50 4 50 15 0 9 -9 15 -25 15 -32 0 -32 10 0
40 48 45 17 111 -41 90z"/>
<path d="M5843 6339 c-30 -11 -38 -45 -18 -75 11 -18 23 -24 36 -21 26 7 33
-7 12 -24 -13 -11 -17 -11 -20 -1 -6 17 -33 15 -33 -3 0 -22 36 -38 60 -25 72
39 38 178 -37 149z m45 -46 c5 -17 -26 -29 -40 -15 -6 6 -7 15 -3 22 9 14 37
9 43 -7z"/>
<path d="M5965 6337 c-14 -11 -17 -21 -12 -47 4 -19 2 -38 -4 -46 -14 -17 4
-50 31 -59 32 -10 74 21 65 48 -4 12 -7 36 -6 52 0 17 -3 35 -7 41 -12 19 -47
25 -67 11z m45 -42 c0 -8 -7 -15 -15 -15 -8 0 -15 7 -15 15 0 8 7 15 15 15 8
0 15 -7 15 -15z m7 -61 c5 -15 -28 -27 -40 -15 -5 5 -6 14 -2 21 8 13 37 9 42
-6z"/>
<path d="M6104 6340 c-45 -18 -51 -119 -8 -146 22 -15 26 -15 49 0 43 28 21
105 -26 93 -12 -3 -19 0 -19 10 0 10 9 13 30 11 35 -4 43 10 15 27 -13 8 -28
10 -41 5z m33 -96 c8 -21 -13 -42 -28 -27 -13 13 -5 43 11 43 6 0 13 -7 17
-16z"/>
<path d="M3910 6281 c0 -63 -14 -86 -35 -58 -15 20 -35 22 -35 4 0 -18 32 -47
52 -47 31 0 48 34 48 98 0 48 -3 62 -15 62 -12 0 -15 -13 -15 -59z"/>
<path d="M5723 6323 c-29 -19 -30 -43 -3 -36 18 5 20 0 20 -52 0 -41 3 -56 13
-53 8 3 13 31 15 81 3 83 -2 90 -45 60z"/>
<path d="M1780 6290 c-24 -24 -26 -63 -4 -85 19 -19 75 -17 82 3 3 8 -6 12
-29 10 -18 -2 -34 2 -36 9 -3 7 10 13 33 15 45 4 53 19 25 47 -26 26 -46 26
-71 1z m50 -15 c11 -13 8 -15 -15 -15 -23 0 -26 2 -15 15 7 8 14 15 15 15 1 0
8 -7 15 -15z"/>
<path d="M1922 6302 l-33 -3 3 -51 c4 -65 26 -76 30 -16 2 30 8 44 19 46 13 2
18 -8 23 -42 8 -53 26 -62 26 -13 0 41 13 62 34 54 11 -4 16 -19 16 -48 0 -28
4 -39 13 -36 13 4 16 91 4 104 -8 7 -80 10 -135 5z"/>
<path d="M2100 6228 c0 -63 3 -78 15 -78 8 0 15 9 15 20 0 16 7 20 30 20 32 0
50 22 50 63 0 33 -23 50 -71 51 l-39 1 0 -77z m75 17 c0 -23 -4 -30 -20 -30
-21 0 -31 25 -21 51 11 28 41 12 41 -21z"/>
<path d="M2253 6303 c-7 -2 -13 -11 -13 -19 0 -10 8 -12 30 -7 41 8 38 -3 -6
-22 -28 -11 -35 -19 -32 -37 3 -20 10 -23 51 -26 l47 -3 0 50 c0 39 -4 53 -19
61 -21 11 -38 12 -58 3z m47 -73 c0 -12 -28 -25 -36 -17 -9 9 6 27 22 27 8 0
14 -5 14 -10z"/>
<path d="M2658 6299 c-12 -7 -18 -22 -18 -48 0 -46 20 -66 55 -57 18 5 25 2
25 -8 0 -19 -29 -29 -46 -15 -7 6 -19 7 -25 3 -16 -10 17 -34 47 -34 41 0 55
26 52 97 l-3 65 -35 3 c-19 2 -43 -1 -52 -6z m60 -42 c5 -23 -15 -47 -34 -40
-8 3 -14 18 -14 35 0 25 4 29 22 26 13 -2 24 -11 26 -21z"/>
<path d="M3063 6303 c-7 -2 -13 -12 -13 -20 0 -10 6 -13 18 -8 28 11 34 11 39
-1 2 -6 -11 -15 -29 -20 -26 -8 -33 -15 -33 -34 0 -23 5 -25 48 -28 l47 -3 0
48 c0 27 -5 54 -12 61 -12 12 -43 15 -65 5z m47 -73 c0 -12 -28 -25 -36 -17
-9 9 6 27 22 27 8 0 14 -5 14 -10z"/>
<path d="M3314 6297 c-9 -25 0 -100 14 -105 8 -3 12 12 12 52 0 53 -14 83 -26
53z"/>
<path d="M3397 6303 c-21 -3 -27 -9 -23 -20 3 -8 6 -32 6 -54 0 -21 5 -39 10
-39 6 0 10 15 10 33 0 37 8 51 33 60 17 6 15 29 -1 26 -4 -1 -20 -4 -35 -6z"/>
<path d="M3710 6290 c0 -5 7 -10 15 -10 8 0 15 5 15 10 0 6 -7 10 -15 10 -8 0
-15 -4 -15 -10z"/>
<path d="M21992 6233 c1 -43 2 -48 5 -20 5 46 15 47 43 2 12 -19 26 -35 31
-35 5 0 8 26 7 58 -1 49 -2 51 -5 15 -2 -24 -8 -43 -13 -43 -5 0 -19 18 -31
40 -13 22 -26 40 -31 40 -4 0 -7 -26 -6 -57z"/>
<path d="M14688 6259 c-24 -13 -23 -46 0 -54 11 -3 70 -1 133 5 63 5 117 10
122 10 4 0 7 4 7 8 0 25 -227 51 -262 31z"/>
<path d="M5290 6245 c0 -10 10 -15 30 -15 20 0 30 5 30 15 0 10 -10 15 -30 15
-20 0 -30 -5 -30 -15z"/>
<path d="M5620 6245 c0 -12 7 -15 25 -13 14 2 26 8 26 13 0 6 -12 11 -26 13
-18 2 -25 -1 -25 -13z"/>
<path d="M15623 6246 c-62 -9 -77 -19 -48 -30 8 -3 99 -6 201 -6 187 -2 224 4
196 32 -15 15 -261 18 -349 4z"/>
<path d="M15218 6223 c7 -3 16 -2 19 1 4 3 -2 6 -13 5 -11 0 -14 -3 -6 -6z"/>
<path d="M3717 6214 c-8 -8 1 -24 14 -24 5 0 9 7 9 15 0 15 -12 20 -23 9z"/>
<path d="M4923 6181 c1 -22 5 -27 15 -19 17 14 15 48 -3 48 -10 0 -14 -9 -12
-29z"/>
<path d="M22115 6201 c-3 -5 -2 -12 3 -15 5 -3 9 1 9 9 0 17 -3 19 -12 6z"/>
<path d="M2046 6063 c-11 -11 -6 -23 9 -23 8 0 15 4 15 9 0 13 -16 22 -24 14z"/>
<path d="M2294 6057 c-10 -27 1 -150 14 -155 7 -2 12 6 12 20 0 23 16 48 31
48 4 0 17 -16 29 -35 12 -19 28 -35 36 -35 20 0 18 10 -11 52 -30 45 -31 59
-5 76 21 13 27 42 9 42 -6 0 -27 -17 -45 -37 -19 -20 -35 -33 -36 -27 0 5 -2
14 -3 19 -2 6 -3 18 -4 28 -1 20 -19 23 -27 4z"/>
<path d="M2584 6057 c-10 -27 1 -150 14 -155 9 -3 12 17 12 77 0 74 -13 112
-26 78z"/>
<path d="M2985 6059 c-10 -15 3 -25 16 -12 7 7 7 13 1 17 -6 3 -14 1 -17 -5z"/>
<path d="M6042 6054 c-69 -48 -35 -154 49 -154 39 0 59 19 59 55 0 32 -2 35
-30 35 -20 0 -30 -5 -30 -15 0 -8 7 -15 16 -15 25 0 10 -25 -18 -28 -32 -4
-50 19 -46 59 4 40 30 59 58 41 43 -27 69 -6 28 22 -29 20 -58 20 -86 0z"/>
<path d="M6325 6058 c-3 -8 -5 -46 -3 -84 2 -53 6 -69 18 -69 12 0 15 15 15
73 0 46 -5 77 -12 84 -9 7 -14 6 -18 -4z"/>
<path d="M6524 6058 c-6 -7 -10 -44 -10 -83 l1 -70 49 1 c38 0 53 5 67 23 24
29 24 82 2 110 -22 26 -94 39 -109 19z m80 -34 c19 -18 21 -65 4 -82 -7 -7
-22 -12 -35 -12 -21 0 -23 4 -23 55 0 48 3 55 19 55 11 0 27 -7 35 -16z"/>
<path d="M7024 6057 c-10 -27 1 -150 14 -155 8 -2 12 9 12 35 0 46 13 68 34
60 11 -5 16 -19 16 -53 0 -59 24 -55 28 5 4 51 -10 71 -49 71 -22 0 -29 5 -29
19 0 25 -18 37 -26 18z"/>
<path d="M22002 6064 c12 -4 18 -19 21 -57 l4 -52 -1 55 c-1 47 -4 55 -21 57
-15 1 -15 0 -3 -3z"/>
<path d="M1709 6033 c-1 -16 0 -43 1 -61 1 -22 -4 -34 -16 -39 -10 -4 -19 -2
-22 5 -5 16 -32 15 -32 -1 0 -39 60 -50 84 -15 22 31 22 138 1 138 -9 0 -15
-10 -16 -27z"/>
<path d="M3854 6047 c-9 -25 0 -140 13 -144 7 -3 13 8 15 24 2 23 9 29 38 33
44 6 67 44 46 75 -17 25 -103 34 -112 12z m86 -37 c0 -16 -7 -20 -30 -20 -23
0 -30 4 -30 20 0 16 7 20 30 20 23 0 30 -4 30 -20z"/>
<path d="M4007 6053 c-2 -5 -3 -39 -3 -78 l1 -70 58 0 c68 0 81 18 17 25 -61
7 -63 34 -2 38 56 4 51 26 -6 30 -29 2 -42 8 -42 18 0 10 12 14 45 14 33 0 45
4 45 15 0 11 -13 15 -54 15 -30 0 -57 -3 -59 -7z"/>
<path d="M4160 5990 c0 -38 0 -73 0 -77 0 -5 6 -8 13 -8 6 0 13 15 15 33 4 41
14 40 49 -3 26 -33 53 -46 53 -26 0 4 -9 19 -19 32 -18 24 -18 25 0 47 18 23
16 50 -5 64 -6 4 -32 8 -58 8 l-48 0 0 -70z m90 25 c0 -10 -10 -15 -30 -15
-20 0 -30 5 -30 15 0 10 10 15 30 15 20 0 30 -5 30 -15z"/>
<path d="M4322 5983 l3 -78 58 -3 c46 -2 57 0 57 13 0 11 -11 15 -46 15 -38 0
-45 3 -42 18 2 12 14 18 41 20 53 5 51 32 -3 32 -57 0 -55 28 2 32 23 2 43 9
46 16 3 9 -13 12 -58 12 l-61 0 3 -77z"/>
<path d="M4470 5980 c0 -64 3 -80 15 -80 11 0 15 12 15 47 0 52 10 50 25 -5
15 -51 37 -47 49 8 l10 45 6 -45 c3 -31 10 -45 20 -45 12 0 15 15 15 75 0 73
-1 75 -25 75 -20 0 -26 -7 -35 -37 -15 -53 -21 -54 -35 -3 -10 37 -17 45 -36
45 -23 0 -24 -3 -24 -80z"/>
<path d="M4660 5979 c0 -60 3 -80 13 -77 6 3 13 17 15 31 3 23 8 27 36 27 39
0 56 15 56 50 0 38 -18 50 -72 50 l-48 0 0 -81z m85 31 c0 -9 -11 -16 -27 -18
-23 -3 -28 1 -28 18 0 17 5 21 28 18 16 -2 27 -9 27 -18z"/>
<path d="M4810 5996 c0 -56 3 -67 22 -80 31 -22 64 -20 88 4 28 28 30 143 3
138 -14 -2 -19 -16 -23 -63 -5 -56 -7 -60 -30 -60 -24 0 -25 3 -28 63 -2 46
-7 62 -17 62 -12 0 -15 -15 -15 -64z"/>
<path d="M4990 5993 c-13 -38 -25 -74 -28 -80 -7 -21 26 -15 38 7 7 13 21 20
41 20 22 0 32 -5 36 -20 5 -19 23 -26 35 -15 3 3 -8 39 -25 80 -24 61 -34 75
-51 75 -18 0 -26 -12 -46 -67z m60 -4 c0 -10 -7 -19 -15 -19 -16 0 -19 9 -9
34 8 20 24 11 24 -15z"/>
<path d="M5132 5983 c2 -61 6 -78 18 -78 11 0 15 10 14 38 -2 48 9 47 41 -4
16 -24 32 -39 42 -37 15 3 17 25 14 138 -1 11 -8 20 -16 20 -11 0 -15 -11 -15
-40 0 -22 -3 -40 -7 -40 -5 0 -18 18 -31 40 -15 26 -30 40 -43 40 -18 0 -20
-6 -17 -77z"/>
<path d="M7360 5980 l0 -80 46 0 c25 0 54 5 65 10 20 11 26 54 9 65 -7 4 -7
13 0 26 8 13 7 25 0 39 -9 16 -21 20 -65 20 l-55 0 0 -80z m95 35 c0 -5 -15
-11 -32 -13 -25 -3 -33 1 -33 13 0 12 8 16 33 13 17 -2 32 -7 32 -13z m-6 -54
c7 -5 10 -14 7 -20 -9 -14 -53 -15 -61 -1 -15 25 24 40 54 21z"/>
<path d="M16257 6031 c-54 -11 -67 -28 -33 -41 40 -15 131 -13 145 4 24 29
-42 51 -112 37z"/>
<path d="M15101 6016 l-24 -13 30 -5 c35 -5 73 6 73 22 0 14 -50 12 -79 -4z"/>
<path d="M22136 6017 c3 -10 9 -15 12 -12 3 3 0 11 -7 18 -10 9 -11 8 -5 -6z"/>
<path d="M1782 6008 c-7 -7 -12 -29 -12 -50 0 -31 5 -41 25 -50 31 -14 86 5
67 24 -8 8 -15 8 -27 -2 -12 -10 -19 -10 -27 -2 -15 15 -7 22 28 26 33 4 40
17 24 45 -12 24 -58 29 -78 9z m56 -25 c2 -8 -5 -13 -17 -13 -12 0 -21 6 -21
16 0 18 31 15 38 -3z"/>
<path d="M1902 5963 c4 -65 22 -75 26 -15 6 77 52 67 52 -11 0 -26 4 -37 13
-35 15 5 19 62 7 94 -8 20 -15 23 -55 22 l-46 -2 3 -53z"/>
<path d="M2042 5966 c2 -31 8 -56 13 -56 15 0 13 102 -3 108 -10 3 -12 -9 -10
-52z"/>
<path d="M2113 6014 c-27 -11 -14 -45 23 -60 25 -11 33 -19 26 -26 -7 -7 -16
-6 -30 1 -27 14 -32 14 -32 -4 0 -20 46 -30 76 -16 34 15 28 42 -14 60 -41 19
-42 35 -1 26 24 -5 30 -4 27 6 -5 14 -53 22 -75 13z"/>
<path d="M2460 6001 c-24 -46 1 -101 47 -101 25 0 49 25 33 35 -6 4 -17 1 -25
-5 -15 -12 -35 -6 -35 11 0 5 16 9 35 9 30 0 35 3 35 23 0 13 -5 28 -12 35
-19 19 -66 15 -78 -7z m60 -16 c0 -8 -6 -15 -14 -15 -17 0 -28 14 -19 24 12
12 33 6 33 -9z"/>
<path d="M2657 6014 c-16 -17 -5 -25 24 -19 24 5 30 4 27 -6 -2 -7 -15 -16
-28 -19 -63 -15 -45 -70 21 -67 l40 1 -3 56 -3 55 -35 3 c-20 2 -39 0 -43 -4z
m53 -68 c0 -21 -20 -30 -33 -17 -9 9 -8 14 3 21 21 14 30 12 30 -4z"/>
<path d="M2772 5962 c3 -63 28 -88 28 -29 0 45 9 67 26 67 8 0 14 -16 16 -47
4 -58 28 -72 28 -16 0 77 36 84 42 9 2 -22 9 -41 16 -44 10 -3 12 10 10 54
l-3 59 -83 1 -83 2 3 -56z"/>
<path d="M2980 5960 c0 -45 3 -61 13 -57 7 2 12 23 12 57 0 34 -5 55 -12 58
-10 3 -13 -13 -13 -58z"/>
<path d="M3040 5958 c0 -72 22 -77 30 -7 3 30 10 45 22 47 17 3 30 -33 25 -73
-1 -12 4 -20 13 -20 17 0 22 42 10 85 -6 22 -12 25 -53 26 l-47 1 0 -59z"/>
<path d="M3717 6014 c-8 -8 1 -24 14 -24 5 0 9 7 9 15 0 15 -12 20 -23 9z"/>
<path d="M6197 6002 c-53 -58 28 -137 83 -82 24 24 25 48 4 78 -19 27 -64 29
-87 4z m63 -17 c18 -22 3 -57 -23 -53 -25 3 -34 32 -17 53 16 19 24 19 40 0z"/>
<path d="M6687 6013 c-16 -16 -5 -24 24 -18 24 5 30 4 27 -6 -2 -7 -15 -16
-28 -19 -32 -8 -47 -34 -31 -54 9 -10 26 -15 54 -13 l41 3 -3 49 c-1 28 -5 53
-7 57 -6 10 -68 11 -77 1z m53 -67 c0 -18 -17 -29 -30 -21 -8 5 -7 11 1 21 15
18 29 18 29 0z"/>
<path d="M6804 6006 c-3 -7 -4 -33 -2 -57 4 -58 29 -61 35 -4 2 22 11 43 19
48 24 13 16 27 -16 27 -17 0 -33 -6 -36 -14z"/>
<path d="M6907 6013 c-15 -14 -6 -25 17 -19 39 10 40 -11 1 -24 -27 -9 -35
-17 -35 -36 0 -25 15 -31 73 -32 26 0 27 2 27 47 0 26 -5 52 -12 59 -13 13
-60 16 -71 5z m49 -82 c-10 -16 -36 -13 -36 3 0 17 21 27 34 16 4 -5 5 -13 2
-19z"/>
<path d="M7230 6005 c0 -8 7 -15 15 -15 8 0 15 7 15 15 0 8 -7 15 -15 15 -8 0
-15 -7 -15 -15z"/>
<path d="M14788 6003 c6 -2 18 -2 25 0 6 3 1 5 -13 5 -14 0 -19 -2 -12 -5z"/>
<path d="M22241 5974 c0 -11 3 -14 6 -6 3 7 2 16 -1 19 -3 4 -6 -2 -5 -13z"/>
<path d="M3717 5924 c-8 -8 1 -24 14 -24 5 0 9 7 9 15 0 15 -12 20 -23 9z"/>
<path d="M6390 5914 c0 -9 5 -14 12 -12 18 6 21 28 4 28 -9 0 -16 -7 -16 -16z"/>
<path d="M7232 5919 c2 -6 8 -10 13 -10 5 0 11 4 13 10 2 6 -4 11 -13 11 -9 0
-15 -5 -13 -11z"/>
<path d="M22042 5802 c-2 -39 -6 -54 -19 -59 -9 -4 -19 -1 -21 5 -2 7 -8 12
-14 12 -6 0 -6 -6 2 -15 32 -38 63 -5 57 62 l-3 48 -2 -53z"/>
<path d="M15162 5820 c-48 -11 -62 -28 -38 -46 41 -29 185 -6 173 29 -7 23
-74 31 -135 17z"/>
<path d="M14906 5801 c-8 -13 -10 -12 67 -16 31 -2 57 1 57 6 0 5 -13 9 -29 9
-16 0 -42 3 -59 6 -17 4 -32 1 -36 -5z"/>
<path d="M15545 5797 c-23 -18 -13 -23 60 -31 64 -7 92 2 82 28 -8 21 -114 22
-142 3z"/>
<path d="M1693 5768 c-5 -7 -20 -41 -33 -76 -23 -64 -19 -94 7 -54 20 29 68
30 83 2 11 -21 45 -28 37 -7 -60 152 -70 166 -94 135z m31 -54 c10 -26 7 -34
-14 -34 -11 0 -20 4 -20 9 0 17 12 41 20 41 4 0 11 -7 14 -16z"/>
<path d="M1814 5766 c-10 -26 1 -139 14 -144 9 -3 12 17 12 77 0 49 -4 81 -10
81 -6 0 -13 -6 -16 -14z"/>
<path d="M28098 5773 c6 -2 18 -2 25 0 6 3 1 5 -13 5 -14 0 -19 -2 -12 -5z"/>
<path d="M28150 5770 c0 -5 5 -10 11 -10 5 0 7 5 4 10 -3 6 -8 10 -11 10 -2 0
-4 -4 -4 -10z"/>
<path d="M2331 5747 c-8 -21 -7 -46 5 -104 3 -15 12 -23 24 -23 21 0 27 15 10
25 -13 8 -13 62 0 67 12 4 -10 58 -23 58 -4 0 -11 -10 -16 -23z"/>
<path d="M3910 5711 c0 -63 -14 -86 -35 -58 -15 21 -35 22 -35 3 0 -19 27 -46
46 -46 9 0 24 5 35 10 16 9 19 22 19 80 0 56 -3 70 -15 70 -12 0 -15 -13 -15
-59z"/>
<path d="M3980 5690 l0 -80 55 0 c42 0 55 3 55 15 0 11 -11 15 -40 15 l-40 0
0 65 c0 51 -3 65 -15 65 -12 0 -15 -16 -15 -80z"/>
<path d="M4244 5756 c-3 -7 -4 -42 -2 -77 2 -49 7 -64 18 -64 8 0 16 7 16 15
1 8 2 21 3 28 0 6 13 12 29 12 50 0 73 37 47 76 -12 19 -24 24 -61 24 -28 0
-47 -5 -50 -14z m86 -36 c0 -16 -7 -20 -30 -20 -18 0 -30 5 -30 13 0 20 10 27
37 27 16 0 23 -6 23 -20z"/>
<path d="M4416 5762 c-20 -33 -52 -143 -43 -149 6 -3 17 3 25 15 18 28 55 28
81 1 37 -40 41 -11 9 66 -22 55 -35 75 -49 75 -10 0 -20 -4 -23 -8z m44 -74
c0 -4 -9 -8 -21 -8 -15 0 -19 4 -15 16 3 9 6 21 6 27 1 13 30 -22 30 -35z"/>
<path d="M4556 5757 c-28 -21 -15 -50 32 -72 23 -11 41 -24 39 -30 -6 -18 -38
-17 -58 1 -29 26 -48 3 -20 -25 38 -38 111 -19 111 28 0 23 -20 40 -56 50 -15
4 -29 12 -32 19 -5 15 40 16 55 1 20 -20 36 1 17 22 -20 22 -62 25 -88 6z"/>
<path d="M4680 5755 c0 -9 9 -15 25 -15 24 0 25 -2 25 -65 0 -51 3 -65 15 -65
12 0 15 14 15 64 0 57 2 65 20 68 45 7 22 23 -37 26 -52 2 -63 0 -63 -13z"/>
<path d="M4830 5690 c0 -64 3 -80 15 -80 12 0 15 16 15 80 0 64 -3 80 -15 80
-12 0 -15 -16 -15 -80z"/>
<path d="M4971 5744 c-54 -69 15 -164 90 -124 33 18 22 31 -21 24 -36 -6 -40
-4 -51 20 -10 20 -10 32 0 52 11 24 15 26 51 20 43 -7 54 6 21 24 -34 18 -68
12 -90 -16z"/>
<path d="M5120 5690 l0 -80 60 0 c47 0 60 3 60 15 0 11 -12 15 -46 15 -38 0
-45 3 -42 18 2 12 14 18 41 20 48 4 44 27 -4 28 -23 0 -35 5 -37 16 -3 13 6
17 39 20 70 5 61 28 -10 28 l-61 0 0 -80z"/>
<path d="M5270 5690 c0 -63 3 -80 14 -80 9 0 16 12 18 28 2 22 9 28 33 30 40
5 55 19 55 51 0 39 -17 51 -72 51 l-48 0 0 -80z m88 28 c3 -14 -3 -18 -27 -18
-25 0 -31 4 -31 21 0 16 5 20 27 17 17 -2 29 -10 31 -20z"/>
<path d="M5443 5758 c-6 -7 -18 -38 -28 -68 -10 -30 -20 -61 -23 -67 -7 -21
26 -15 38 7 6 12 21 20 35 20 14 0 30 -9 37 -20 13 -20 38 -27 38 -11 0 6 -12
42 -26 80 -26 71 -48 89 -71 59z m40 -58 c4 -15 0 -20 -14 -20 -20 0 -23 8
-13 34 7 20 20 13 27 -14z"/>
<path d="M5540 5755 c0 -8 9 -15 20 -15 11 0 20 -3 21 -7 1 -5 2 -32 4 -61 1
-29 5 -55 8 -58 15 -16 27 13 27 66 0 51 3 59 20 62 45 7 22 23 -37 26 -52 2
-63 0 -63 -13z"/>
<path d="M5756 5696 c-14 -41 -26 -77 -26 -80 0 -15 30 -4 40 14 6 12 21 20
35 20 14 0 30 -9 37 -20 13 -20 38 -27 38 -11 0 6 -12 42 -26 80 -22 59 -30
71 -49 71 -19 0 -27 -12 -49 -74z m67 4 c4 -15 0 -20 -14 -20 -20 0 -23 8 -13
34 7 20 20 13 27 -14z"/>
<path d="M5902 5758 c3 -7 17 -14 31 -16 15 -2 27 -5 27 -6 0 -2 -9 -25 -21
-50 -20 -46 -20 -76 0 -76 5 0 12 15 16 33 4 17 18 49 31 70 14 21 22 42 19
47 -10 15 -108 13 -103 -2z"/>
<path d="M6056 5761 c-11 -17 -36 -111 -36 -135 0 -36 19 -3 35 62 16 63 17
99 1 73z"/>
<path d="M6106 5748 c-35 -49 -9 -138 39 -138 23 0 55 32 55 57 0 20 -30 43
-56 43 -13 0 -24 5 -24 10 0 17 29 23 44 11 19 -16 32 5 16 24 -18 22 -57 18
-74 -7z m57 -74 c9 -9 -4 -34 -18 -34 -14 0 -27 25 -18 34 4 3 12 6 18 6 6 0
14 -3 18 -6z"/>
<path d="M6235 5750 c-39 -44 -12 -140 40 -140 28 0 45 18 45 50 0 32 -17 50
-47 50 -13 0 -23 5 -23 10 0 17 29 23 44 11 19 -16 32 5 16 24 -17 21 -54 18
-75 -5z m55 -91 c0 -23 -28 -26 -37 -3 -6 16 15 37 29 28 4 -3 8 -14 8 -25z"/>
<path d="M1887 5729 c-25 -15 -11 -30 18 -19 16 6 27 6 31 -1 8 -13 6 -14 -31
-26 -22 -7 -30 -16 -30 -34 0 -22 5 -24 48 -27 l47 -3 0 50 c0 39 -4 53 -19
61 -24 13 -41 12 -64 -1z m53 -69 c0 -12 -28 -25 -36 -17 -9 9 6 27 22 27 8 0
14 -5 14 -10z"/>
<path d="M2000 5678 c0 -45 3 -58 15 -58 11 0 15 12 15 45 0 38 3 45 20 45 17
0 20 -7 20 -45 0 -33 4 -45 14 -45 10 0 16 14 18 42 2 31 8 44 21 46 14 3 17
-4 17 -42 0 -34 4 -46 15 -46 11 0 15 12 15 49 0 59 -18 80 -54 63 -13 -6 -27
-8 -31 -4 -4 4 -24 7 -46 7 l-39 0 0 -57z"/>
<path d="M2217 5729 c-26 -15 -11 -29 23 -22 41 8 38 -4 -6 -22 -28 -11 -35
-19 -32 -37 3 -20 9 -23 51 -25 l47 -2 0 44 c0 64 -36 92 -83 64z m51 -71 c-7
-19 -38 -22 -38 -4 0 10 9 16 21 16 12 0 19 -5 17 -12z"/>
<path d="M3715 5720 c-3 -5 1 -10 9 -10 9 0 16 5 16 10 0 6 -4 10 -9 10 -6 0
-13 -4 -16 -10z"/>
<path d="M28037 5674 c-3 -3 -3 -12 0 -20 6 -17 44 -19 60 -3 8 8 17 7 34 -5
26 -17 39 -20 39 -8 0 25 -113 56 -133 36z m43 -14 c0 -5 -4 -10 -9 -10 -6 0
-13 5 -16 10 -3 6 1 10 9 10 9 0 16 -4 16 -10z"/>
<path d="M3715 5641 c-7 -12 12 -24 25 -16 11 7 4 25 -10 25 -5 0 -11 -4 -15
-9z"/>
<path d="M4120 5625 c0 -9 5 -15 11 -13 6 2 11 8 11 13 0 5 -5 11 -11 13 -6 2
-11 -4 -11 -13z"/>
<path d="M22021 5611 c-14 -25 -14 -42 0 -18 6 9 14 15 20 12 5 -4 9 -2 9 4 0
20 -19 21 -29 2z"/>
<path d="M22123 5575 c0 -33 2 -45 4 -27 2 18 2 45 0 60 -2 15 -4 0 -4 -33z"/>
<path d="M15815 5580 c-18 -7 -18 -9 10 -19 16 -7 41 -9 55 -6 24 6 24 7 6 21
-22 16 -41 17 -71 4z"/>
<path d="M16391 5581 c-12 -8 -13 -12 -1 -26 9 -11 26 -15 59 -13 38 3 46 6
46 23 0 17 -8 20 -45 23 -25 1 -51 -2 -59 -7z"/>
<path d="M15045 5571 c-3 -5 4 -13 16 -16 23 -8 34 -1 24 14 -8 13 -32 14 -40
2z"/>
<path d="M21993 5544 c-6 -13 -7 -24 -3 -24 9 0 25 39 18 45 -2 2 -8 -7 -15
-21z"/>
<path d="M22060 5560 c0 -8 5 -22 10 -30 9 -13 10 -13 10 0 0 8 -5 22 -10 30
-9 13 -10 13 -10 0z"/>
<path d="M2320 5491 c-12 -8 -9 -12 12 -20 25 -9 27 -15 30 -73 4 -81 21 -78
28 4 4 56 8 63 28 66 34 5 26 22 -10 22 -18 0 -42 3 -53 5 -11 3 -27 1 -35 -4z"/>
<path d="M2487 5494 c-7 -13 -37 -131 -37 -151 0 -7 4 -13 9 -13 11 0 44 132
39 157 -2 11 -6 14 -11 7z"/>
<path d="M2553 5493 c-22 -4 -23 -9 -23 -85 0 -59 3 -79 13 -76 6 3 13 19 15
36 4 42 18 40 57 -5 37 -43 58 -38 32 7 -17 27 -17 31 -2 54 20 29 6 66 -25
66 -10 0 -24 2 -32 4 -7 2 -23 1 -35 -1z m66 -36 c14 -18 4 -27 -31 -27 -21 0
-28 5 -28 20 0 24 41 28 59 7z"/>
<path d="M2677 5493 c-3 -4 3 -37 12 -73 27 -109 42 -116 67 -35 10 30 21 52
24 48 4 -5 13 -29 20 -55 16 -59 36 -61 51 -5 6 23 15 55 20 71 12 39 11 46
-5 46 -8 0 -18 -19 -25 -45 -6 -25 -13 -45 -16 -45 -3 0 -10 20 -16 46 -10 37
-15 45 -33 42 -14 -2 -24 -14 -31 -40 -14 -52 -22 -55 -30 -9 -6 39 -28 70
-38 54z"/>
<path d="M2162 5413 c3 -78 20 -107 26 -45 4 42 20 41 58 -5 38 -45 66 -38 33
8 -19 28 -20 31 -5 48 37 41 12 71 -61 71 l-54 0 3 -77z m96 40 c5 -18 -45
-40 -60 -25 -6 6 -8 18 -4 27 7 19 57 17 64 -2z"/>
<path d="M3866 5474 c-19 -19 -22 -114 -4 -132 19 -19 55 -14 72 10 47 66 -15
176 -68 122z m50 -38 c9 -37 1 -70 -18 -74 -15 -3 -18 4 -18 41 0 24 3 47 7
50 12 13 23 7 29 -17z"/>
<path d="M3996 5475 c-40 -40 -25 -137 22 -143 31 -5 50 13 58 53 13 74 -38
132 -80 90z m42 -27 c14 -14 16 -57 3 -77 -15 -23 -41 -5 -41 28 0 54 14 73
38 49z"/>
<path d="M4100 5475 c0 -10 10 -15 30 -15 17 0 30 -2 30 -4 0 -2 -9 -23 -20
-47 -23 -51 -25 -79 -7 -79 8 0 20 19 27 43 7 23 21 54 32 69 26 37 16 48 -43
48 -37 0 -49 -4 -49 -15z"/>
<path d="M4256 5481 c-5 -7 -17 -44 -26 -82 -14 -54 -15 -69 -5 -69 8 0 20 28
30 70 17 69 17 108 1 81z"/>
<path d="M4306 5468 c-21 -29 -21 -102 0 -122 21 -22 61 -20 74 3 5 11 10 40
10 64 0 69 -51 102 -84 55z m52 -62 c3 -41 1 -47 -15 -44 -19 3 -30 55 -19 85
12 29 31 6 34 -41z"/>
<path d="M4426 5468 c-35 -49 -9 -138 38 -138 38 0 53 33 48 107 -4 50 -59 70
-86 31z m54 -39 c9 -37 0 -70 -19 -67 -18 4 -26 38 -16 75 7 30 27 26 35 -8z"/>
<path d="M4561 5481 c-17 -11 -24 -120 -9 -138 14 -17 63 -17 76 0 16 19 9
127 -9 138 -18 11 -40 11 -58 0z m45 -32 c10 -17 -13 -36 -27 -22 -12 12 -4
33 11 33 5 0 12 -5 16 -11z m4 -74 c0 -8 -9 -15 -20 -15 -11 0 -20 7 -20 15 0
8 9 15 20 15 11 0 20 -7 20 -15z"/>
<path d="M3715 5441 c-7 -12 12 -24 25 -16 11 7 4 25 -10 25 -5 0 -11 -4 -15
-9z"/>
<path d="M15077 5363 c-84 -6 -69 -27 24 -34 85 -6 101 -3 97 20 -3 18 -26 20
-121 14z"/>
<path d="M3717 5354 c-8 -8 1 -24 14 -24 5 0 9 7 9 15 0 15 -12 20 -23 9z"/>
<path d="M2160 5130 c0 -64 3 -80 15 -80 9 0 15 9 15 24 0 13 7 29 15 36 12
10 18 6 36 -24 13 -22 29 -36 41 -36 19 0 19 1 4 25 -50 78 -48 69 -21 95 14
13 25 27 25 32 0 17 -28 7 -55 -22 -16 -16 -32 -30 -37 -30 -4 0 -8 14 -8 30
0 20 -5 30 -15 30 -12 0 -15 -16 -15 -80z"/>
<path d="M2450 5129 c0 -60 3 -80 13 -77 8 3 13 31 15 81 2 64 0 77 -13 77
-12 0 -15 -15 -15 -81z"/>
<path d="M2537 5203 c-11 -17 -37 -146 -32 -152 11 -10 23 21 35 86 11 59 10
87 -3 66z"/>
<path d="M2580 5130 l0 -80 45 0 c58 0 85 25 85 79 0 50 -35 81 -91 81 l-39 0
0 -80z m88 38 c30 -30 3 -98 -39 -98 -16 0 -19 7 -19 55 0 51 2 55 23 55 13 0
28 -5 35 -12z"/>
<path d="M3857 5193 c-4 -3 -7 -39 -7 -80 0 -58 3 -73 15 -73 9 0 15 9 15 25
0 21 5 25 30 25 32 0 70 30 70 55 0 28 -38 55 -78 55 -21 0 -42 -3 -45 -7z
m78 -48 c0 -22 -31 -33 -47 -17 -17 17 -1 44 24 40 15 -2 23 -10 23 -23z"/>
<path d="M4007 5194 c-11 -11 -8 -142 3 -149 16 -10 99 -12 112 -3 18 11 -8
28 -36 22 -29 -5 -58 5 -53 19 2 7 21 14 42 17 55 7 57 28 3 32 -61 4 -59 31
2 38 25 3 44 10 43 15 -3 12 -105 19 -116 9z"/>
<path d="M4195 5188 c-31 -17 -45 -39 -45 -73 0 -43 32 -75 76 -75 51 0 74 15
74 50 0 28 -3 30 -35 30 -24 0 -35 -5 -35 -15 0 -8 7 -15 15 -15 20 0 19 -16
-1 -24 -25 -10 -64 20 -64 49 0 43 50 71 77 44 11 -11 33 -5 33 10 0 9 -45 31
-63 31 -7 0 -21 -6 -32 -12z"/>
<path d="M4376 5192 c-5 -9 -56 -142 -56 -148 0 -11 31 -2 36 11 10 24 71 19
85 -6 7 -15 14 -18 21 -11 11 11 -23 120 -45 150 -11 14 -33 16 -41 4z m34
-68 c0 -15 -6 -24 -15 -24 -16 0 -19 17 -9 44 9 22 24 10 24 -20z"/>
<path d="M4496 5184 c-11 -29 -7 -133 6 -140 37 -23 105 -4 119 33 25 67 -11
123 -79 123 -27 0 -42 -5 -46 -16z m78 -20 c25 -10 21 -80 -5 -94 -29 -16 -49
4 -49 50 0 49 13 60 54 44z"/>
<path d="M4666 5193 c-3 -3 -6 -34 -6 -68 0 -71 12 -88 62 -88 48 0 70 33 66
102 -2 42 -7 56 -18 56 -11 0 -16 -15 -18 -62 -2 -45 -7 -63 -19 -67 -28 -11
-43 13 -43 70 0 50 -9 72 -24 57z"/>
<path d="M4827 5194 c-4 -4 -7 -41 -7 -81 0 -65 2 -74 17 -71 14 3 17 11 15
41 -4 48 11 47 39 -3 14 -24 30 -40 41 -40 17 0 19 8 16 75 -3 84 -20 105 -28
35 l-5 -45 -30 44 c-31 45 -46 57 -58 45z"/>
<path d="M5025 5188 c-31 -16 -45 -39 -45 -71 0 -62 47 -94 110 -73 30 9 35
16 35 41 0 27 -4 30 -32 33 -25 2 -33 -1 -33 -12 0 -9 7 -16 15 -16 22 0 18
-17 -4 -23 -27 -7 -61 20 -61 48 0 43 50 71 77 44 11 -11 33 -5 33 10 0 9 -45
31 -63 31 -7 0 -21 -6 -32 -12z"/>
<path d="M5205 5191 c-6 -12 -55 -139 -55 -146 0 -12 31 -3 36 10 4 9 19 15
40 15 22 0 37 -6 40 -15 7 -16 34 -21 34 -6 0 14 -42 124 -53 139 -11 14 -33
16 -42 3z m35 -73 c0 -10 -7 -18 -15 -18 -16 0 -19 17 -9 45 5 13 8 14 15 3 5
-7 9 -21 9 -30z"/>
<path d="M5327 5194 c-4 -4 -7 -40 -7 -81 0 -58 3 -73 15 -73 11 0 15 11 15
40 0 47 14 51 35 11 19 -38 44 -63 56 -56 15 10 12 167 -3 163 -7 -3 -15 -24
-18 -49 l-5 -44 -30 44 c-31 45 -46 57 -58 45z"/>
<path d="M2336 5154 c-20 -19 -21 -78 -2 -93 18 -15 68 -11 74 6 2 9 -5 11
-27 7 -24 -5 -31 -3 -31 10 0 12 9 16 35 16 28 0 35 4 35 19 0 20 -34 51 -57
51 -6 0 -19 -7 -27 -16z m52 -26 c-3 -7 -11 -13 -18 -13 -7 0 -15 6 -17 13 -3
7 4 12 17 12 13 0 20 -5 18 -12z"/>
<path d="M2758 5160 c-22 -13 -32 -64 -18 -90 9 -17 19 -20 47 -18 20 2 38 9
41 16 2 8 -6 11 -27 10 -16 -2 -31 2 -33 7 -2 6 14 11 35 13 42 4 48 21 17 52
-22 22 -37 24 -62 10z m45 -35 c1 -5 -6 -11 -15 -13 -11 -2 -18 3 -18 13 0 17
30 18 33 0z"/>
<path d="M2875 5156 c-25 -18 -13 -44 25 -57 42 -15 39 -33 -5 -25 -40 8 -50
-10 -11 -20 42 -10 71 -1 74 24 3 18 -4 26 -34 38 -26 11 -34 18 -26 26 8 8
15 8 26 -1 8 -7 21 -9 27 -5 9 5 7 11 -6 21 -24 17 -46 17 -70 -1z"/>
<path d="M3005 5157 c-13 -10 -15 -16 -6 -21 6 -4 18 -2 26 4 14 12 35 6 35
-9 0 -5 -15 -12 -32 -17 -26 -8 -33 -15 -33 -34 0 -23 5 -25 48 -28 l47 -3 0
50 c0 39 -4 53 -19 61 -26 14 -44 13 -66 -3z m55 -67 c0 -12 -28 -25 -36 -17
-9 9 6 27 22 27 8 0 14 -5 14 -10z"/>
<path d="M3716 5145 c4 -8 10 -15 15 -15 5 0 9 7 9 15 0 8 -7 15 -15 15 -9 0
-12 -6 -9 -15z"/>
<path d="M15385 5137 c-10 -8 -15 -19 -11 -25 17 -28 136 -25 136 4 0 30 -91
45 -125 21z"/>
<path d="M15757 5140 c-20 -4 -40 -10 -44 -14 -10 -10 17 -26 44 -26 12 0 27
-2 35 -5 7 -3 22 1 33 10 20 15 20 15 1 30 -11 8 -22 14 -25 14 -3 -1 -23 -5
-44 -9z"/>
<path d="M3717 5074 c-8 -8 1 -24 14 -24 5 0 9 7 9 15 0 15 -12 20 -23 9z"/>
<path d="M15306 4921 c-14 -22 6 -31 69 -31 56 0 87 11 72 26 -11 11 -135 16
-141 5z"/>
<path d="M2162 4843 c3 -78 18 -104 28 -48 7 41 31 42 58 0 22 -35 42 -46 42
-22 0 7 -11 29 -25 49 l-25 37 26 30 c24 29 25 31 6 31 -11 0 -32 -13 -45 -30
-14 -16 -28 -30 -31 -30 -3 0 -6 14 -6 30 0 20 -5 30 -15 30 -13 0 -15 -13
-13 -77z"/>
<path d="M3928 4890 c-35 -36 -49 -38 -45 -8 1 14 -4 23 -15 26 -16 3 -18 -5
-18 -72 0 -41 4 -77 8 -80 13 -8 35 11 27 23 -7 12 11 41 25 41 5 0 17 -16 29
-35 11 -19 27 -35 36 -35 21 0 19 9 -10 52 -30 45 -31 50 -5 73 22 19 27 45 9
45 -6 0 -24 -13 -41 -30z"/>
<path d="M4056 4898 c-21 -34 -51 -137 -42 -145 5 -5 15 2 23 15 20 29 66 30
85 0 8 -12 19 -18 26 -14 8 5 5 25 -13 73 -37 98 -53 112 -79 71z m38 -44 c10
-26 7 -34 -14 -34 -11 0 -20 4 -20 9 0 17 12 41 20 41 4 0 11 -7 14 -16z"/>
<path d="M4325 4908 c-10 -24 -1 -153 10 -153 13 0 19 145 6 158 -7 7 -12 5
-16 -5z"/>
<path d="M4383 4904 c-2 -6 -3 -42 -1 -80 l3 -69 48 1 c53 0 64 7 76 50 13 48
-4 91 -42 103 -39 13 -78 11 -84 -5z m81 -27 c22 -16 19 -75 -5 -90 -30 -19
-49 -1 -49 46 0 59 16 72 54 44z"/>
<path d="M4554 4911 c-2 -2 -4 -40 -4 -83 l0 -79 57 3 c71 4 88 28 19 28 -39
0 -46 3 -46 20 0 17 7 20 40 20 29 0 40 4 40 15 0 11 -11 15 -41 15 -33 0 -40
3 -37 18 2 12 13 17 38 18 57 0 45 26 -13 28 -27 0 -51 -1 -53 -3z"/>
<path d="M4707 4913 c-4 -3 -7 -42 -7 -85 0 -59 3 -79 13 -76 6 3 13 19 15 36
4 42 18 40 57 -5 38 -43 58 -38 31 8 -17 28 -17 31 -1 49 22 24 16 51 -15 67
-27 14 -82 17 -93 6z m74 -33 c5 0 9 -7 9 -15 0 -10 -10 -15 -30 -15 -18 0
-30 5 -30 13 0 19 12 29 28 22 7 -3 18 -5 23 -5z"/>
<path d="M4872 4911 c-9 -5 -12 -29 -10 -82 l3 -74 54 0 c67 0 83 22 19 27
-56 4 -60 31 -5 38 52 7 51 24 -1 28 -34 3 -43 7 -40 20 2 11 14 17 33 18 51
2 57 4 53 16 -5 14 -87 21 -106 9z"/>
<path d="M5040 4907 c-47 -24 -35 -70 21 -82 34 -8 46 -22 30 -38 -7 -7 -18
-7 -38 3 -16 8 -31 16 -35 18 -19 9 -6 -28 14 -42 32 -22 55 -20 83 8 33 33
24 53 -34 78 -40 17 -44 21 -28 30 13 7 22 7 30 -1 13 -13 47 -15 47 -2 0 27
-57 45 -90 28z"/>
<path d="M15162 4913 c-19 -7 -4 -23 23 -23 29 0 41 16 19 24 -18 7 -23 7 -42
-1z"/>
<path d="M3032 4894 c-11 -20 -4 -104 11 -121 13 -18 37 -16 37 2 0 8 -4 15
-10 15 -13 0 -13 53 1 67 8 8 7 17 -3 32 -15 25 -24 26 -36 5z"/>
<path d="M4180 4843 c0 -37 4 -74 9 -81 5 -9 24 -12 56 -10 63 4 72 26 13 30
l-43 3 -1 60 c-1 47 -5 61 -18 63 -14 3 -16 -7 -16 -65z"/>
<path d="M2325 4856 c-19 -29 -11 -72 17 -87 25 -14 68 -3 68 17 0 12 -4 13
-20 4 -11 -6 -25 -8 -30 -5 -19 12 -9 24 22 27 38 3 48 27 23 52 -24 24 -62
20 -80 -8z m63 -14 c2 -7 -6 -12 -17 -12 -21 0 -27 11 -14 24 9 9 26 2 31 -12z"/>
<path d="M2463 4868 c-23 -29 -24 -67 -3 -88 22 -22 42 -25 71 -10 31 17 23
32 -15 25 -29 -6 -35 -4 -41 15 -10 31 17 59 39 41 20 -17 41 -4 25 15 -14 17
-63 18 -76 2z"/>
<path d="M2587 4873 c-14 -13 -6 -22 17 -20 31 2 35 -16 5 -23 -12 -3 -27 -13
-32 -22 -17 -26 8 -47 54 -45 l39 1 0 46 c0 25 -5 51 -12 58 -13 13 -60 16
-71 5z m51 -75 c-3 -7 -11 -13 -18 -13 -7 0 -15 6 -17 13 -3 7 4 12 17 12 13
0 20 -5 18 -12z"/>
<path d="M2703 4864 c-8 -21 2 -99 12 -99 6 0 12 20 15 45 7 62 33 62 40 1 6
-55 30 -69 30 -18 0 45 9 67 26 67 8 0 14 -16 16 -47 2 -27 8 -48 16 -51 10
-3 12 10 10 54 l-3 59 -79 0 c-51 1 -80 -3 -83 -11z"/>
<path d="M2917 4873 c-14 -13 -6 -24 16 -21 26 4 36 -15 10 -21 -27 -5 -43
-21 -43 -42 0 -19 20 -26 73 -27 26 0 27 2 27 47 0 26 -5 52 -12 59 -13 13
-60 16 -71 5z m51 -75 c-7 -19 -38 -22 -38 -4 0 10 9 16 21 16 12 0 19 -5 17
-12z"/>
<path d="M3117 4874 c-16 -16 -5 -25 23 -19 42 9 39 -11 -5 -29 -58 -25 -40
-65 28 -63 l38 1 -3 55 -3 56 -35 3 c-20 2 -39 0 -43 -4z m50 -79 c-4 -8 -13
-15 -22 -15 -21 0 -19 28 3 32 22 5 26 2 19 -17z"/>
<path d="M3237 4874 c-1 -1 0 -27 1 -58 4 -63 22 -77 22 -17 0 40 23 72 40 55
5 -5 10 -27 12 -49 4 -53 22 -51 26 3 4 56 -9 71 -59 69 -22 -1 -41 -2 -42 -3z"/>
<path d="M3717 4874 c-8 -8 1 -24 14 -24 5 0 9 7 9 15 0 15 -12 20 -23 9z"/>
<path d="M3717 4784 c-8 -8 1 -24 14 -24 5 0 9 7 9 15 0 15 -12 20 -23 9z"/>
<path d="M22005 4693 c-14 -31 -23 -58 -20 -61 2 -3 7 3 11 12 4 10 18 16 39
16 21 0 35 -6 39 -16 4 -9 9 -15 11 -12 6 6 -42 118 -50 118 -3 0 -17 -25 -30
-57z m48 8 c5 -22 0 -31 -20 -31 -7 0 -13 11 -13 25 0 30 25 34 33 6z"/>
<path d="M22115 4691 c-7 -23 2 -48 21 -55 13 -5 13 -3 0 16 -11 15 -12 26 -5
40 6 11 6 18 0 18 -5 0 -12 -8 -16 -19z"/>
<path d="M22181 4705 c-2 -5 -3 -28 -3 -50 0 -22 -5 -43 -11 -47 -9 -6 -9 -8
1 -8 18 0 24 21 19 71 -2 24 -5 40 -6 34z"/>
<path d="M15055 4680 c-8 -13 20 -24 41 -16 20 8 9 26 -16 26 -10 0 -22 -5
-25 -10z"/>
<path d="M1693 4628 c-6 -7 -21 -41 -33 -76 -23 -62 -20 -93 5 -59 19 27 72
31 85 7 6 -11 17 -20 25 -20 12 0 11 9 -6 53 -41 104 -55 121 -76 95z m31 -54
c10 -26 7 -34 -14 -34 -11 0 -20 4 -20 9 0 17 12 41 20 41 4 0 11 -7 14 -16z"/>
<path d="M3852 4543 c2 -50 7 -78 16 -81 9 -3 12 17 12 77 0 66 -3 81 -15 81
-13 0 -15 -13 -13 -77z"/>
<path d="M3932 4608 c-28 -28 -8 -63 45 -77 15 -4 28 -14 28 -22 0 -21 -34
-23 -56 -3 -29 26 -48 3 -20 -25 25 -25 58 -27 89 -5 35 24 25 55 -25 79 -24
11 -43 23 -43 27 0 12 44 10 57 -3 16 -16 28 8 13 26 -15 18 -71 20 -88 3z"/>
<path d="M4072 4543 l3 -78 73 -1 c61 -1 75 2 83 18 14 26 63 24 81 -4 8 -12
19 -18 25 -15 8 5 2 30 -17 80 -23 61 -31 72 -51 72 -21 0 -27 -10 -47 -67
l-24 -66 -36 5 c-62 8 -62 8 -62 73 0 47 -3 60 -15 60 -13 0 -15 -13 -13 -77z
m208 28 c0 -5 3 -16 6 -25 4 -12 0 -16 -15 -16 -22 0 -25 8 -15 34 7 17 24 22
24 7z"/>
<path d="M4370 4539 c0 -60 3 -80 13 -77 6 3 14 27 18 54 5 50 11 47 27 -15
12 -51 30 -49 43 3 15 59 29 59 29 0 0 -32 4 -44 13 -42 8 3 13 31 15 82 l3
77 -28 -3 c-22 -2 -29 -10 -38 -40 -15 -53 -21 -54 -34 -3 -10 38 -15 45 -36
45 -25 0 -25 -1 -25 -81z"/>
<path d="M1826 4585 c-19 -19 -21 -76 -4 -93 7 -7 25 -12 40 -12 15 0 28 -5
28 -10 0 -17 -27 -23 -48 -11 -23 12 -36 3 -21 -16 15 -18 64 -17 83 3 11 11
16 35 16 80 0 61 -1 64 -24 64 -13 0 -31 3 -39 6 -8 3 -22 -2 -31 -11z m61
-31 c7 -18 -6 -45 -25 -52 -15 -5 -33 33 -26 52 8 21 43 21 51 0z"/>
<path d="M1964 4586 c-24 -18 -13 -31 15 -17 14 8 22 8 27 -1 4 -6 3 -13 -2
-15 -27 -10 -58 -29 -61 -39 -8 -23 23 -40 65 -36 l40 4 -4 46 c-7 65 -39 88
-80 58z m46 -71 c0 -8 -9 -15 -20 -15 -22 0 -27 15 -7 23 21 9 27 7 27 -8z"/>
<path d="M2109 4592 c-34 -3 -36 -5 -34 -35 2 -18 3 -42 4 -54 2 -36 21 -27
21 10 0 41 13 62 34 54 9 -4 16 -10 15 -14 -1 -4 -1 -23 0 -41 1 -47 26 -36
28 12 1 43 6 51 28 43 10 -4 15 -20 15 -47 0 -29 4 -40 15 -40 16 0 20 44 9
87 -6 23 -34 35 -55 22 -7 -4 -20 -4 -28 -1 -9 4 -32 6 -52 4z"/>
<path d="M2294 4586 c-24 -18 -13 -31 15 -17 14 8 22 8 27 0 7 -12 -12 -29
-32 -29 -18 0 -35 -26 -28 -44 4 -11 19 -16 50 -16 l44 0 0 50 c0 38 -4 52
-19 60 -26 13 -33 13 -57 -4z m46 -71 c0 -8 -9 -15 -20 -15 -20 0 -26 11 -13
23 12 13 33 7 33 -8z"/>
<path d="M3710 4580 c0 -5 7 -10 15 -10 8 0 15 5 15 10 0 6 -7 10 -15 10 -8 0
-15 -4 -15 -10z"/>
<path d="M22002 4521 c-24 -14 -9 -45 26 -55 22 -6 32 -14 30 -25 -4 -20 -38
-27 -49 -10 -4 7 -11 10 -16 6 -10 -11 16 -27 44 -27 23 0 43 26 36 47 -2 7
-20 17 -39 23 -19 6 -34 16 -34 21 0 16 32 23 51 10 11 -6 19 -7 19 -2 0 19
-46 27 -68 12z"/>
<path d="M22108 4504 c-7 -39 4 -94 19 -94 12 0 13 3 4 13 -6 8 -10 30 -9 50
1 40 -8 60 -14 31z"/>
<path d="M3720 4495 c0 -8 5 -15 10 -15 6 0 10 7 10 15 0 8 -4 15 -10 15 -5 0
-10 -7 -10 -15z"/>
<path d="M22270 4500 c-4 -26 1 -75 9 -82 6 -7 4 47 -3 82 -3 13 -4 13 -6 0z"/>
<path d="M22215 4454 c0 -19 3 -34 8 -34 4 0 7 13 7 29 0 17 -3 32 -7 34 -5 3
-8 -10 -8 -29z"/>
<path d="M22433 4470 c2 -8 12 -16 23 -17 13 -2 15 -1 4 4 -8 3 -19 11 -23 17
-6 7 -7 6 -4 -4z"/>
<path d="M14895 4460 c-4 -6 11 -10 39 -10 25 0 48 5 51 10 4 6 -11 10 -39 10
-25 0 -48 -4 -51 -10z"/>
<path d="M15105 4460 c3 -5 10 -10 16 -10 5 0 9 5 9 10 0 6 -7 10 -16 10 -8 0
-12 -4 -9 -10z"/>
<path d="M22164 4439 c-3 -6 -1 -16 4 -21 8 -8 11 -5 9 11 -1 24 -3 25 -13 10z"/>
<path d="M22330 4431 c0 -6 4 -13 10 -16 6 -3 7 1 4 9 -7 18 -14 21 -14 7z"/>
<path d="M1661 4341 c-12 -12 -21 -25 -21 -30 0 -15 51 -51 71 -51 24 0 33
-18 19 -35 -16 -20 -22 -19 -50 5 -17 15 -27 17 -34 10 -15 -16 29 -50 64 -50
32 0 63 31 58 57 -1 10 -22 27 -45 38 -24 11 -43 25 -43 32 0 15 36 17 45 3 7
-12 35 -14 35 -2 -1 18 -18 32 -47 38 -24 5 -36 1 -52 -15z"/>
<path d="M2410 4269 c0 -60 3 -80 13 -77 6 3 13 16 15 30 2 19 11 27 39 34 46
12 61 34 45 68 -10 23 -18 26 -62 26 l-50 0 0 -81z m77 50 c17 -17 4 -39 -23
-39 -17 0 -24 6 -24 18 0 32 25 43 47 21z"/>
<path d="M2772 4273 c2 -50 7 -78 16 -81 7 -2 12 5 12 16 0 32 13 34 36 5 30
-38 43 -21 19 24 -15 27 -17 37 -7 41 14 4 17 32 3 32 -5 0 -14 -7 -21 -15
-20 -24 -30 -17 -30 20 0 25 -4 35 -15 35 -13 0 -15 -13 -13 -77z"/>
<path d="M3205 4340 c3 -5 10 -10 16 -10 5 0 9 5 9 10 0 6 -7 10 -16 10 -8 0
-12 -4 -9 -10z"/>
<path d="M1801 4322 c-5 -10 -6 -42 -3 -72 6 -47 10 -55 30 -58 22 -3 30 12
12 23 -14 9 -12 58 3 74 10 11 10 14 0 18 -7 3 -13 11 -13 19 0 20 -17 17 -29
-4z"/>
<path d="M2002 4323 c-14 -27 0 -114 20 -127 21 -13 36 0 20 16 -16 16 -15 60
1 77 10 11 10 14 0 18 -7 3 -13 11 -13 19 0 20 -17 18 -28 -3z"/>
<path d="M3854 4326 c-10 -26 1 -139 14 -144 7 -2 12 6 12 20 0 23 16 48 31
48 4 0 16 -16 28 -35 11 -19 27 -35 36 -35 21 0 19 9 -10 52 -30 45 -31 50 -5
73 11 10 20 22 20 27 0 17 -28 7 -55 -22 -16 -16 -32 -30 -37 -30 -4 0 -8 14
-8 30 0 31 -16 41 -26 16z"/>
<path d="M4055 4328 c-2 -7 -13 -38 -25 -68 -11 -30 -20 -61 -20 -67 0 -21 27
-15 33 7 4 15 14 20 36 20 20 0 34 -7 41 -20 6 -11 17 -20 25 -20 19 0 20 -8
-14 80 -22 58 -33 76 -50 78 -11 2 -23 -3 -26 -10z m35 -37 c0 -5 3 -16 6 -25
4 -12 0 -16 -16 -16 -16 0 -20 4 -16 16 3 9 6 20 6 25 0 5 5 9 10 9 6 0 10 -4
10 -9z"/>
<path d="M4160 4325 c0 -9 7 -45 16 -81 20 -79 42 -83 63 -11 8 26 18 47 22
47 4 0 12 -23 19 -51 20 -83 50 -53 74 75 5 28 4 36 -8 36 -9 0 -18 -15 -23
-41 -10 -49 -25 -55 -33 -13 -15 70 -45 74 -61 9 -6 -25 -14 -45 -18 -45 -4 0
-11 19 -17 42 -9 41 -34 65 -34 33z"/>
<path d="M4380 4260 c0 -64 3 -80 15 -80 12 0 15 16 15 80 0 64 -3 80 -15 80
-12 0 -15 -16 -15 -80z"/>
<path d="M4449 4305 c-4 -116 -4 -120 11 -120 10 0 17 14 20 43 l5 42 29 -45
c43 -69 61 -59 61 35 0 60 -3 75 -15 75 -10 0 -17 -14 -20 -45 l-5 -45 -28 48
c-34 57 -57 62 -58 12z"/>
<path d="M1887 4303 c-14 -13 -6 -24 16 -21 26 4 36 -15 10 -21 -27 -5 -43
-21 -43 -42 0 -19 20 -26 73 -27 26 0 27 2 27 47 0 26 -5 52 -12 59 -13 13
-60 16 -71 5z m49 -82 c-10 -16 -36 -13 -36 3 0 17 21 27 34 16 4 -5 5 -13 2
-19z"/>
<path d="M2080 4263 c0 -26 4 -53 8 -59 4 -7 26 -11 50 -11 l42 2 0 58 c0 69
-23 77 -28 10 -4 -50 -28 -65 -42 -28 -5 14 -9 35 -7 47 1 11 -4 23 -10 25 -9
3 -13 -9 -13 -44z"/>
<path d="M2222 4298 c-21 -21 -13 -38 23 -54 19 -8 35 -19 35 -24 0 -12 -20
-13 -40 -1 -20 13 -34 2 -19 -15 15 -18 63 -18 79 1 19 23 7 49 -28 59 -41 11
-42 31 -1 22 22 -4 29 -2 27 7 -6 17 -60 21 -76 5z"/>
<path d="M2567 4292 c-10 -10 -17 -30 -17 -44 0 -48 62 -77 91 -42 11 14 9 15
-21 12 -20 -2 -35 2 -37 10 -3 8 7 12 31 12 43 0 53 13 32 45 -20 30 -56 33
-79 7z m53 -17 c0 -8 -9 -15 -20 -15 -20 0 -26 11 -13 23 12 13 33 7 33 -8z"/>
<path d="M2683 4295 c-2 -7 -3 -32 -1 -56 4 -53 28 -66 28 -15 0 24 7 42 20
53 11 10 20 21 20 25 0 12 -62 5 -67 -7z"/>
<path d="M2913 4303 c-26 -10 -12 -24 17 -18 42 9 39 -11 -5 -29 -60 -25 -39
-68 30 -62 l39 4 -3 48 c-1 27 -5 52 -7 56 -6 9 -52 9 -71 1z m44 -80 c-9 -9
-20 -12 -28 -8 -9 6 -8 11 6 21 23 17 42 6 22 -13z"/>
<path d="M3020 4297 c0 -25 32 -107 42 -107 5 0 15 14 21 30 13 33 27 40 27
13 0 -10 4 -24 9 -32 13 -20 37 0 45 37 3 15 9 38 12 51 5 18 4 23 -7 19 -7
-2 -16 -15 -19 -27 -3 -12 -9 -22 -15 -22 -5 0 -12 10 -15 22 -8 35 -29 34
-41 0 -14 -39 -25 -39 -32 -1 -6 30 -27 43 -27 17z"/>
<path d="M3204 4296 c-9 -24 1 -99 14 -104 9 -3 12 13 12 57 0 57 -13 81 -26
47z"/>
<path d="M3270 4248 c0 -72 22 -77 30 -7 3 30 10 44 20 44 10 0 17 -14 20 -44
8 -68 30 -65 30 3 0 60 -4 63 -72 64 -27 0 -28 -1 -28 -60z"/>
<path d="M3417 4303 c-15 -14 -6 -25 17 -19 39 10 40 -12 1 -28 -58 -25 -43
-66 23 -63 l42 1 0 46 c0 25 -5 51 -12 58 -13 13 -60 16 -71 5z m51 -75 c-3
-7 -11 -13 -18 -13 -7 0 -15 6 -17 13 -3 7 4 12 17 12 13 0 20 -5 18 -12z"/>
<path d="M3533 4294 c-8 -21 2 -99 12 -99 6 0 11 17 13 37 3 39 26 68 42 52 5
-5 10 -27 12 -49 2 -22 8 -40 13 -40 14 0 18 84 5 100 -14 17 -90 16 -97 -1z"/>
<path d="M3717 4304 c-8 -8 1 -24 14 -24 5 0 9 7 9 15 0 15 -12 20 -23 9z"/>
<path d="M21990 4250 c0 -33 4 -60 10 -60 6 0 10 11 10 25 0 20 5 25 24 25 33
0 50 23 36 49 -8 15 -21 21 -45 21 l-35 0 0 -60z m59 41 c19 -12 6 -41 -18
-41 -23 0 -34 23 -18 39 13 13 18 13 36 2z"/>
<path d="M22210 4305 c-3 -5 -3 -35 1 -65 3 -30 6 -45 7 -32 2 28 18 28 32 1
7 -11 14 -18 17 -15 3 3 0 12 -7 21 -7 8 -10 24 -7 36 5 20 5 20 -13 4 -18
-16 -19 -15 -22 22 -2 21 -5 34 -8 28z"/>
<path d="M22104 4245 c-4 -15 -1 -32 6 -40 14 -16 46 -20 54 -6 3 4 -6 6 -21
3 -24 -5 -25 -3 -21 32 5 41 -8 49 -18 11z"/>
<path d="M22146 4263 c6 -4 14 -15 17 -23 5 -11 6 -9 4 4 -1 11 -9 21 -17 23
-10 3 -11 2 -4 -4z"/>
<path d="M22304 4256 c-14 -36 23 -83 46 -60 8 8 4 10 -12 10 -17 -1 -24 5
-26 23 -2 13 2 28 10 32 10 7 10 9 0 9 -7 0 -15 -6 -18 -14z"/>
<path d="M22352 4250 c7 -10 14 -18 15 -16 6 6 -9 36 -18 36 -5 0 -4 -9 3 -20z"/>
<path d="M22400 4231 c0 -23 2 -41 4 -41 8 0 12 71 4 76 -4 3 -8 -13 -8 -35z"/>
<path d="M22468 4215 c-1 -30 0 -55 5 -55 4 0 7 25 7 55 0 71 -7 71 -12 0z"/>
<path d="M15675 4241 c-10 -17 15 -23 68 -15 48 7 50 8 22 15 -45 10 -83 10
-90 0z"/>
<path d="M15176 4230 c11 -4 45 -5 75 0 l54 8 -75 0 c-50 1 -68 -2 -54 -8z"/>
<path d="M3720 4205 c0 -8 5 -15 10 -15 6 0 10 7 10 15 0 8 -4 15 -10 15 -5 0
-10 -7 -10 -15z"/>
<path d="M22515 4210 c3 -5 8 -10 11 -10 2 0 4 5 4 10 0 6 -5 10 -11 10 -5 0
-7 -4 -4 -10z"/>
<path d="M27513 4133 c-3 -10 -12 -33 -19 -52 -18 -42 -17 -61 0 -38 7 9 25
17 39 17 14 0 31 -8 37 -17 10 -15 10 -14 6 8 -9 42 -36 99 -46 99 -6 0 -13
-8 -17 -17z m31 -19 c11 -29 6 -44 -14 -44 -22 0 -23 3 -14 38 7 26 19 29 28
6z"/>
<path d="M27610 4089 c0 -37 4 -58 10 -54 6 3 10 15 10 26 0 27 25 24 44 -6 9
-14 22 -25 28 -25 6 0 3 9 -8 21 -15 16 -16 24 -6 39 25 41 10 60 -49 60 -29
0 -29 0 -29 -61z m71 26 c0 -5 -12 -11 -26 -13 -18 -2 -25 1 -25 13 0 12 7 15
25 13 14 -2 26 -7 26 -13z"/>
<path d="M27730 4141 c0 -5 8 -11 17 -13 14 -2 17 -12 15 -45 -2 -22 1 -44 7
-48 7 -4 11 11 11 44 0 44 3 51 20 51 11 0 20 5 20 10 0 6 -20 10 -45 10 -25
0 -45 -4 -45 -9z"/>
<path d="M27842 4090 c-12 -33 -17 -60 -12 -60 4 0 10 7 14 15 8 21 53 19 65
-2 5 -10 12 -15 16 -12 10 10 -35 119 -50 119 -7 0 -22 -27 -33 -60z m51 10
c6 -23 -10 -37 -25 -22 -12 12 -4 42 11 42 5 0 11 -9 14 -20z"/>
<path d="M28000 4089 l0 -60 43 3 42 3 1 45 c2 56 -9 70 -52 70 l-34 0 0 -61z
m70 26 c0 -16 -45 -21 -54 -6 -8 12 4 21 31 21 14 0 23 -6 23 -15z m0 -50 c0
-16 -45 -21 -54 -6 -8 12 4 21 31 21 14 0 23 -6 23 -15z"/>
<path d="M28145 4117 c-21 -51 -28 -87 -17 -87 5 0 12 7 16 15 3 8 16 15 30
15 13 0 26 -7 30 -15 3 -8 10 -15 15 -15 5 0 3 21 -6 48 -27 81 -46 92 -68 39z
m39 -13 c9 -23 8 -24 -13 -24 -14 0 -18 5 -14 20 6 24 19 26 27 4z"/>
<path d="M28250 4090 c0 -33 4 -60 10 -60 6 0 10 11 10 25 0 14 5 25 11 25 6
0 20 -11 31 -25 25 -33 45 -32 24 0 -15 23 -15 27 -1 41 26 26 2 54 -45 54
l-40 0 0 -60z m70 25 c0 -9 -9 -15 -25 -15 -16 0 -25 6 -25 15 0 9 9 15 25 15
16 0 25 -6 25 -15z"/>
<path d="M28395 4117 c-21 -51 -28 -87 -17 -87 5 0 12 7 16 15 7 20 46 19 62
-2 22 -32 24 -8 2 50 -24 65 -43 72 -63 24z m39 -13 c9 -22 8 -24 -9 -24 -8 0
-15 9 -15 20 0 24 15 27 24 4z"/>
<path d="M28480 4141 c0 -5 9 -11 20 -14 16 -4 20 -14 20 -51 0 -25 5 -46 10
-46 6 0 10 23 10 50 0 38 4 50 15 50 8 0 15 5 15 10 0 6 -20 10 -45 10 -25 0
-45 -4 -45 -9z"/>
<path d="M27268 4133 c7 -3 16 -2 19 1 4 3 -2 6 -13 5 -11 0 -14 -3 -6 -6z"/>
<path d="M27363 4085 c-1 -33 2 -51 4 -40 6 22 22 45 32 45 3 0 14 -14 24 -31
10 -18 20 -29 23 -26 4 3 -4 20 -16 37 -21 30 -21 32 -5 51 10 10 13 19 7 19
-6 0 -16 -9 -22 -20 -14 -27 -38 -25 -43 3 -2 12 -4 -5 -4 -38z"/>
<path d="M21990 4031 c0 -34 4 -61 10 -61 6 0 10 9 10 19 0 34 22 36 46 6 13
-16 26 -27 29 -24 3 3 -4 17 -15 32 -25 31 -25 46 -3 63 10 7 14 16 10 21 -5
4 -19 -4 -31 -19 -26 -33 -36 -35 -36 -9 0 11 -4 23 -10 26 -6 4 -10 -17 -10
-54z"/>
<path d="M27237 4070 c-3 -13 -4 -26 -2 -29 3 -2 5 1 5 7 0 19 61 14 76 -5 12
-15 12 -13 2 17 -6 19 -13 29 -16 22 -5 -16 -49 -16 -54 0 -3 7 -7 2 -11 -12z"/>
<path d="M1650 3990 c0 -64 3 -80 15 -80 10 0 15 10 15 30 0 27 3 30 29 30 34
0 61 23 61 50 0 31 -28 50 -76 50 l-44 0 0 -80z m86 38 c8 -12 -24 -40 -41
-35 -5 2 -11 13 -13 25 -3 18 2 22 22 22 14 0 28 -5 32 -12z"/>
<path d="M1929 4068 c0 -2 -1 -36 -2 -77 -1 -51 3 -76 11 -79 7 -2 12 5 12 17
0 31 16 34 34 6 9 -14 23 -25 31 -25 11 0 10 8 -7 35 -20 34 -20 37 -3 55 15
17 16 20 3 20 -9 0 -21 -7 -28 -15 -18 -21 -30 -9 -30 31 0 19 -4 34 -10 34
-5 0 -10 -1 -11 -2z"/>
<path d="M2270 4055 c0 -9 5 -15 11 -13 6 2 11 8 11 13 0 5 -5 11 -11 13 -6 2
-11 -4 -11 -13z"/>
<path d="M27174 4053 c-10 -16 -13 -16 -30 -3 -18 13 -18 13 -3 -3 17 -20 49
-13 49 9 0 18 -3 18 -16 -3z"/>
<path d="M3857 4043 c-4 -3 -7 -39 -7 -80 0 -58 3 -73 15 -73 9 0 15 9 15 23
0 19 8 25 45 35 42 11 45 14 45 47 0 24 -6 37 -19 45 -22 11 -84 14 -94 3z
m81 -45 c4 -19 -35 -35 -50 -20 -6 6 -8 18 -4 27 8 21 50 16 54 -7z"/>
<path d="M4008 4043 c-2 -5 -3 -30 -2 -58 3 -105 -3 -96 59 -93 68 4 77 22 13
26 -63 4 -67 29 -6 34 57 4 62 26 6 30 -30 2 -43 7 -43 18 0 10 13 16 43 18
28 2 42 8 42 18 0 10 -14 14 -54 14 -30 0 -56 -3 -58 -7z"/>
<path d="M4175 4025 c-68 -67 20 -171 106 -125 12 7 19 21 19 40 0 28 -3 30
-35 30 -38 0 -47 -15 -15 -25 28 -9 15 -25 -19 -25 -35 0 -53 21 -49 56 4 38
30 52 68 37 36 -14 53 3 25 24 -29 21 -73 16 -100 -12z"/>
<path d="M4375 4041 c-6 -12 -55 -139 -55 -146 0 -14 31 -2 40 15 6 12 21 20
35 20 14 0 30 -9 37 -20 12 -18 38 -28 38 -14 0 3 -12 39 -26 80 -20 55 -31
74 -45 74 -10 0 -20 -4 -24 -9z m38 -60 c3 -12 -1 -22 -11 -26 -21 -8 -25 0
-18 30 7 28 21 26 29 -4z"/>
<path d="M4470 4043 c0 -5 9 -39 18 -78 15 -56 22 -70 37 -70 14 0 22 11 30
45 6 25 15 45 20 45 5 0 14 -20 20 -45 15 -62 40 -66 55 -8 6 24 15 58 20 75
5 19 5 35 -1 39 -16 10 -26 -5 -33 -47 -8 -47 -20 -43 -33 11 -13 49 -44 48
-58 -2 -17 -62 -23 -60 -39 15 -6 23 -36 41 -36 20z"/>
<path d="M4723 4038 c-6 -7 -18 -38 -28 -68 -10 -30 -20 -61 -23 -67 -7 -21
26 -15 38 7 6 12 21 20 35 20 14 0 29 -8 35 -20 12 -22 40 -27 39 -7 0 6 -13
41 -27 77 -27 64 -49 83 -69 58z m37 -70 c0 -10 -7 -18 -15 -18 -16 0 -19 17
-9 45 5 13 8 14 15 3 5 -7 9 -21 9 -30z"/>
<path d="M4849 4048 c-1 -6 -2 -62 0 -110 1 -36 5 -48 16 -48 13 0 15 13 13
77 -2 50 -7 78 -15 81 -7 2 -13 2 -14 0z"/>
<path d="M4985 4030 c-24 -27 -13 -47 40 -70 26 -11 43 -24 40 -30 -8 -13 -52
-13 -60 0 -8 13 -35 13 -35 1 0 -19 32 -41 61 -41 28 0 69 29 69 49 0 17 -32
42 -61 48 -16 3 -32 10 -35 14 -9 15 27 23 47 11 37 -23 53 -8 23 22 -21 22
-67 20 -89 -4z"/>
<path d="M5117 4042 c-3 -4 2 -39 12 -78 14 -55 21 -69 36 -69 14 0 22 11 30
42 15 60 21 61 40 4 20 -62 40 -65 55 -8 6 23 15 56 20 74 4 17 5 34 2 37 -13
14 -22 3 -33 -40 -13 -49 -23 -48 -36 6 -14 52 -45 48 -57 -7 -11 -54 -23 -55
-33 -1 -8 40 -25 59 -36 40z"/>
<path d="M5365 4041 c-6 -12 -55 -139 -55 -146 0 -14 31 -2 40 15 6 12 21 20
35 20 14 0 30 -9 37 -20 12 -19 38 -28 38 -12 0 4 -12 40 -26 80 -20 53 -31
72 -45 72 -10 0 -20 -4 -24 -9z m35 -67 c0 -24 -14 -32 -25 -14 -9 14 4 52 16
45 5 -4 9 -17 9 -31z"/>
<path d="M5506 4037 c-11 -8 -17 -23 -14 -38 2 -18 13 -27 46 -38 43 -13 51
-33 17 -39 -10 -2 -28 2 -41 9 -31 16 -42 4 -19 -21 35 -38 115 -18 115 29 0
24 -19 39 -58 47 -19 4 -32 13 -32 21 0 15 23 15 63 -2 24 -10 23 21 -2 35
-27 14 -54 13 -75 -3z"/>
<path d="M5630 4036 c0 -8 10 -16 23 -18 20 -3 22 -9 25 -66 4 -84 26 -79 30
6 2 52 6 61 23 64 44 7 20 23 -38 26 -50 2 -63 0 -63 -12z"/>
<path d="M5780 3983 c-13 -37 -25 -74 -28 -80 -7 -21 22 -15 36 7 7 11 23 20
37 20 14 0 30 -9 37 -20 13 -20 38 -28 38 -12 0 5 -13 40 -28 78 -21 51 -34
70 -49 72 -18 3 -24 -7 -43 -65z m60 -15 c0 -10 -7 -18 -15 -18 -15 0 -21 40
-8 53 9 9 23 -13 23 -35z"/>
<path d="M22117 4044 c-11 -11 -8 -49 5 -62 15 -15 45 -16 53 -2 4 7 -2 9 -19
4 -22 -5 -25 -3 -24 25 1 24 6 31 21 31 13 0 17 -5 13 -15 -3 -8 -1 -15 5 -15
6 0 9 8 7 18 -3 17 -48 29 -61 16z"/>
<path d="M22211 4044 c-2 -19 21 -74 30 -74 5 0 9 9 9 19 0 32 19 35 30 5 13
-33 25 -23 34 26 l6 35 -14 -30 -14 -30 -12 30 -12 30 -15 -29 -16 -30 -12 30
c-8 16 -14 24 -14 18z"/>
<path d="M22398 4015 c2 -19 8 -35 12 -35 7 0 8 20 1 63 0 4 -5 7 -9 7 -4 0
-6 -16 -4 -35z"/>
<path d="M22450 4011 c0 -23 2 -41 4 -41 8 0 12 71 4 76 -4 3 -8 -13 -8 -35z"/>
<path d="M22527 4043 c-14 -13 -7 -61 9 -67 14 -5 15 -4 4 9 -7 8 -10 26 -8
40 6 27 5 29 -5 18z"/>
<path d="M22580 3998 c-3 -31 -1 -53 3 -49 5 5 7 30 5 57 l-3 49 -5 -57z"/>
<path d="M1810 4010 c-47 -47 -4 -122 58 -99 32 12 27 30 -7 27 -17 -2 -31 2
-33 7 -2 6 14 11 35 13 42 4 47 18 17 50 -26 27 -44 28 -70 2z m55 -19 c3 -5
1 -13 -5 -16 -15 -9 -43 3 -35 15 8 13 32 13 40 1z"/>
<path d="M2078 4023 c-24 -6 -42 -56 -29 -82 17 -31 47 -44 71 -31 30 16 24
30 -10 24 -23 -5 -30 -3 -30 10 0 12 9 16 35 16 28 0 35 4 35 19 0 18 -36 53
-50 50 -3 -1 -12 -3 -22 -6z m40 -35 c-7 -19 -38 -22 -38 -4 0 10 9 16 21 16
12 0 19 -5 17 -12z"/>
<path d="M2208 4022 c-27 -3 -28 -6 -28 -58 0 -41 4 -54 15 -54 11 0 15 11 15
39 0 29 6 42 22 53 25 17 15 25 -24 20z"/>
<path d="M2348 4019 c-28 -16 -21 -29 12 -22 37 7 42 -14 5 -23 -31 -8 -47
-27 -39 -47 8 -21 22 -25 65 -20 l36 5 -4 46 c-7 63 -35 85 -75 61z m50 -71
c-5 -15 -48 -24 -48 -10 0 14 12 22 33 22 10 0 17 -5 15 -12z"/>
<path d="M2483 4019 c-34 -12 -28 -30 7 -22 40 7 38 -8 -3 -27 -60 -28 -38
-73 31 -63 33 5 33 6 30 56 -3 55 -23 72 -65 56z m37 -74 c0 -8 -9 -15 -20
-15 -20 0 -26 11 -13 23 12 13 33 7 33 -8z"/>
<path d="M2618 4023 c-16 -2 -28 -10 -29 -16 -7 -90 -6 -97 7 -97 9 0 14 11
14 29 0 42 10 61 31 61 16 0 19 -8 19 -45 0 -33 4 -45 15 -45 21 0 21 83 -1
104 -8 9 -18 15 -22 15 -4 -1 -19 -4 -34 -6z"/>
<path d="M14780 4020 c0 -12 65 -24 86 -16 8 3 12 10 9 16 -8 13 -95 13 -95 0z"/>
<path d="M2270 3964 c0 -39 -5 -63 -16 -76 -16 -16 -15 -18 0 -24 28 -11 36 8
39 81 1 47 -2 69 -10 72 -10 3 -13 -11 -13 -53z"/>
<path d="M3717 4014 c-8 -8 1 -24 14 -24 5 0 9 7 9 15 0 15 -12 20 -23 9z"/>
<path d="M22350 3996 c0 -8 4 -17 8 -20 4 -2 8 4 8 15 0 10 -4 19 -8 19 -4 0
-8 -6 -8 -14z"/>
<path d="M22625 3999 c-4 -6 -5 -12 -2 -15 2 -3 7 2 10 11 7 17 1 20 -8 4z"/>
<path d="M28039 3939 c-37 -20 -29 -109 9 -109 27 0 42 20 42 55 0 39 -28 68
-51 54z m26 -54 c0 -42 -19 -58 -30 -25 -9 29 3 72 18 67 7 -2 12 -21 12 -42z"/>
<path d="M28225 3934 c-20 -20 -11 -32 10 -14 12 10 19 10 27 2 9 -9 4 -20
-21 -46 -18 -19 -31 -38 -28 -43 8 -13 65 -15 72 -3 4 6 -5 10 -19 10 -32 0
-33 7 -1 36 29 27 31 37 9 58 -20 20 -29 20 -49 0z"/>
<path d="M3717 3934 c-8 -8 1 -24 14 -24 5 0 9 7 9 15 0 15 -12 20 -23 9z"/>
<path d="M27424 3926 c-3 -8 -4 -31 -2 -52 3 -34 6 -39 27 -39 30 0 46 40 32
78 -11 29 -48 37 -57 13z m41 -42 c0 -28 -4 -39 -15 -39 -16 0 -26 45 -16 72
11 28 31 7 31 -33z"/>
<path d="M27527 3934 c-14 -14 -7 -26 8 -14 8 6 19 9 25 5 15 -10 12 -32 -7
-47 -10 -7 -24 -21 -32 -30 -12 -17 -10 -18 25 -17 23 1 30 3 17 6 -28 5 -29
15 -3 38 26 23 22 59 -5 63 -12 2 -24 0 -28 -4z"/>
<path d="M27690 3925 c-9 -10 -9 -15 -1 -15 6 0 11 -17 11 -40 0 -22 5 -40 10
-40 6 0 10 25 10 55 0 56 -8 67 -30 40z"/>
<path d="M27777 3933 c-14 -13 -7 -25 8 -13 8 6 19 9 25 5 15 -10 12 -32 -7
-47 -10 -7 -24 -21 -32 -30 -12 -17 -10 -18 30 -17 30 2 35 3 17 6 -32 5 -36
18 -9 32 38 21 36 71 -3 71 -13 0 -26 -3 -29 -7z"/>
<path d="M27925 3930 c-11 -18 3 -24 20 -10 12 10 19 10 27 2 9 -9 4 -20 -20
-45 -18 -18 -32 -36 -32 -40 0 -4 17 -6 38 -6 23 1 28 3 15 6 -28 5 -29 15 -3
38 29 26 22 59 -12 63 -14 2 -29 -2 -33 -8z"/>
<path d="M28138 3929 c-22 -12 -24 -31 -3 -23 12 5 15 -3 15 -35 0 -23 5 -41
10 -41 6 0 10 25 10 55 0 57 -3 61 -32 44z"/>
<path d="M27610 3870 c0 -5 9 -10 20 -10 11 0 20 5 20 10 0 6 -9 10 -20 10
-11 0 -20 -4 -20 -10z"/>
<path d="M27860 3870 c0 -5 9 -10 20 -10 11 0 20 5 20 10 0 6 -9 10 -20 10
-11 0 -20 -4 -20 -10z"/>
<path d="M21990 3810 l0 -60 39 0 c44 0 70 22 53 43 -6 7 -8 23 -5 36 7 28
-10 41 -54 41 l-33 0 0 -60z m70 25 c0 -9 -9 -15 -25 -15 -16 0 -25 6 -25 15
0 9 9 15 25 15 16 0 25 -6 25 -15z m6 -46 c8 -13 -15 -30 -36 -26 -8 1 -16 10
-18 20 -3 12 3 17 22 17 14 0 28 -5 32 -11z"/>
<path d="M22432 3810 c-1 -48 2 -59 8 -42 5 12 12 22 16 22 3 0 15 -10 26 -22
l20 -23 -17 28 c-14 24 -14 31 -3 45 9 13 7 12 -9 -2 -24 -20 -28 -17 -36 34
-2 14 -5 -4 -5 -40z"/>
<path d="M8367 3854 c-4 -4 -7 -34 -7 -66 0 -60 -11 -73 -36 -40 -10 13 -15
14 -25 5 -10 -10 -9 -17 6 -33 25 -27 61 -26 80 4 28 42 11 159 -18 130z"/>
<path d="M8465 3848 c-18 -50 -45 -133 -45 -140 0 -17 29 -7 35 12 4 14 15 20
35 20 19 0 33 -7 40 -20 10 -19 40 -29 40 -12 -1 4 -13 39 -28 77 -21 54 -32
71 -50 73 -12 2 -24 -3 -27 -10z m45 -65 c0 -7 -9 -13 -20 -13 -23 0 -24 4 -9
32 9 17 13 18 20 7 5 -8 9 -20 9 -26z"/>
<path d="M8598 3853 c-3 -4 -4 -21 -3 -38 1 -16 3 -49 3 -73 2 -30 6 -42 15
-39 6 2 11 10 9 16 -3 15 16 51 27 51 5 0 18 -16 30 -35 11 -19 27 -35 36 -35
21 0 19 9 -10 52 -30 45 -31 50 -5 73 11 10 20 22 20 27 0 17 -25 7 -57 -24
-22 -21 -33 -27 -34 -17 -1 7 -2 20 -3 28 -1 16 -22 26 -28 14z"/>
<path d="M8795 3848 c-18 -50 -45 -133 -45 -140 0 -17 29 -7 35 12 4 14 15 20
35 20 19 0 33 -7 40 -20 14 -25 44 -27 36 -2 -29 90 -54 137 -74 140 -12 2
-24 -3 -27 -10z m39 -44 c10 -26 7 -34 -15 -34 -15 0 -19 4 -15 16 3 9 6 20 6
25 0 15 17 10 24 -7z"/>
<path d="M8920 3780 c0 -64 3 -80 15 -80 10 0 15 10 15 29 0 17 4 32 9 36 10
5 61 -43 61 -57 0 -5 10 -8 21 -8 20 0 21 1 5 23 -27 37 -29 46 -12 62 22 22
20 52 -3 65 -11 5 -40 10 -65 10 l-46 0 0 -80z m94 41 c8 -13 -20 -33 -41 -29
-10 2 -19 11 -21 21 -3 13 3 17 27 17 16 0 32 -4 35 -9z"/>
<path d="M9072 3848 c3 -7 14 -14 26 -16 20 -3 22 -9 22 -68 0 -50 3 -64 15
-64 12 0 15 14 15 64 0 59 2 65 22 68 12 2 23 9 26 16 3 9 -14 12 -63 12 -49
0 -66 -3 -63 -12z"/>
<path d="M9246 3852 c-20 -33 -52 -143 -43 -149 6 -3 17 3 25 15 9 14 25 22
42 22 17 0 33 -8 42 -22 8 -12 19 -18 25 -15 18 11 -41 151 -65 155 -11 2 -23
-1 -26 -6z m34 -41 c0 -5 3 -16 6 -25 4 -12 0 -16 -16 -16 -16 0 -20 4 -16 16
3 9 6 20 6 25 0 5 5 9 10 9 6 0 10 -4 10 -9z"/>
<path d="M9426 3851 c-8 -12 -4 -128 4 -141 4 -7 28 -10 56 -8 40 2 51 7 61
28 8 16 9 28 2 36 -5 7 -7 24 -3 38 9 39 -11 56 -67 56 -26 0 -50 -4 -53 -9z
m94 -36 c0 -8 -3 -15 -7 -16 -5 0 -15 -2 -24 -4 -22 -4 -43 10 -35 24 11 17
66 14 66 -4z m-2 -67 c3 -15 -4 -18 -32 -18 -34 0 -47 15 -29 34 13 13 58 1
61 -16z"/>
<path d="M9620 3835 c-42 -111 -49 -171 -13 -117 20 29 68 30 83 2 14 -25 44
-27 36 -2 -29 90 -54 137 -74 140 -16 3 -25 -4 -32 -23z m40 -24 c0 -5 3 -16
6 -25 4 -12 0 -16 -16 -16 -16 0 -20 4 -16 16 3 9 6 20 6 25 0 5 5 9 10 9 6 0
10 -4 10 -9z"/>
<path d="M9750 3780 c0 -64 3 -80 15 -80 10 0 15 10 15 29 0 17 4 32 9 36 10
5 61 -43 61 -57 0 -5 9 -8 21 -8 l21 0 -22 35 c-20 32 -20 36 -6 51 19 18 20
28 6 55 -9 15 -22 19 -65 19 l-55 0 0 -80z m94 41 c9 -14 -18 -31 -42 -24 -33
8 -28 33 7 33 17 0 32 -4 35 -9z"/>
<path d="M9953 3848 c-6 -7 -18 -38 -28 -68 -10 -30 -20 -61 -23 -67 -7 -21
26 -15 38 7 7 13 21 20 40 20 20 0 31 -6 35 -20 6 -20 35 -29 35 -11 0 6 -12
42 -26 80 -26 71 -48 89 -71 59z m40 -58 c4 -15 0 -20 -14 -20 -20 0 -23 8
-13 34 7 20 20 13 27 -14z"/>
<path d="M10050 3846 c0 -8 10 -16 23 -18 20 -3 22 -9 24 -62 3 -63 6 -72 22
-61 6 3 11 33 11 65 0 51 3 59 20 62 45 7 22 23 -37 26 -50 2 -63 0 -63 -12z"/>
<path d="M22282 3805 c-1 -32 2 -55 8 -55 5 0 10 24 10 55 0 30 -4 55 -8 55
-4 0 -9 -25 -10 -55z"/>
<path d="M22693 3805 c0 -33 2 -45 4 -27 2 18 2 45 0 60 -2 15 -4 0 -4 -33z"/>
<path d="M22761 3844 c0 -11 3 -14 6 -6 3 7 2 16 -1 19 -3 4 -6 -2 -5 -13z"/>
<path d="M22114 3816 c-12 -31 5 -66 31 -66 13 0 26 4 29 9 3 4 -6 6 -19 3
-22 -4 -25 -1 -25 27 0 25 4 31 21 31 15 0 19 -5 15 -15 -3 -8 -1 -15 5 -15 6
0 9 8 7 18 -4 23 -56 29 -64 8z"/>
<path d="M22210 3790 c0 -22 5 -40 10 -40 6 0 10 13 10 30 0 17 7 33 18 39 14
9 13 10 -10 11 -26 0 -28 -3 -28 -40z"/>
<path d="M22376 3808 c1 -13 3 -31 3 -40 1 -10 6 -18 12 -18 14 0 7 72 -7 77
-6 2 -10 -6 -8 -19z"/>
<path d="M22534 3796 c1 -25 6 -41 16 -44 12 -4 13 -2 3 9 -6 8 -13 28 -16 44
-4 23 -4 20 -3 -9z"/>
<path d="M22588 3795 c-2 -19 0 -35 4 -35 4 0 8 16 8 35 0 19 -2 35 -4 35 -2
0 -6 -16 -8 -35z"/>
<path d="M22812 3780 c0 -14 2 -19 5 -12 2 6 2 18 0 25 -3 6 -5 1 -5 -13z"/>
<path d="M22330 3770 c0 -14 6 -20 23 -19 18 1 18 2 4 6 -11 3 -16 11 -13 19
3 8 1 14 -4 14 -6 0 -10 -9 -10 -20z"/>
<path d="M22762 3770 c0 -14 2 -19 5 -12 2 6 2 18 0 25 -3 6 -5 1 -5 -13z"/>
<path d="M1650 3699 c0 -60 3 -80 13 -77 6 3 14 18 17 34 7 39 31 40 55 2 21
-33 45 -48 45 -29 0 6 -12 30 -26 52 l-26 41 28 29 c24 25 25 29 9 29 -11 0
-34 -14 -52 -32 l-33 -32 0 32 c0 22 -5 32 -15 32 -12 0 -15 -16 -15 -81z"/>
<path d="M3846 3762 c-3 -6 2 -42 11 -81 13 -55 21 -71 35 -71 12 0 21 13 29
43 18 62 26 64 41 11 25 -90 56 -63 75 65 9 63 -18 50 -32 -15 -11 -53 -17
-51 -35 14 -14 54 -40 54 -55 -1 -13 -46 -28 -49 -36 -7 -8 37 -24 57 -33 42z"/>
<path d="M4066 3755 c-3 -9 -6 -46 -6 -81 0 -58 2 -64 21 -64 17 0 20 5 18 34
-5 50 5 53 32 9 46 -75 61 -65 57 38 -3 82 -20 99 -28 29 l-5 -45 -30 44 c-34
50 -50 59 -59 36z"/>
<path d="M4235 3758 c-10 -24 -1 -153 10 -153 13 0 19 145 6 158 -7 7 -12 5
-16 -5z"/>
<path d="M1814 3714 c-19 -29 -11 -69 17 -87 19 -12 69 -1 69 14 0 7 -10 9
-24 5 -15 -4 -28 0 -36 9 -11 13 -7 15 24 15 44 0 57 22 31 50 -25 28 -61 25
-81 -6z m64 -12 c2 -7 -7 -12 -23 -12 -24 0 -26 2 -15 15 14 17 31 16 38 -3z"/>
<path d="M1930 3727 c0 -7 7 -34 16 -60 18 -54 42 -62 51 -17 7 39 19 38 27
-1 10 -53 47 -17 63 61 5 25 3 32 -8 28 -7 -2 -16 -15 -19 -27 -3 -12 -9 -22
-15 -22 -5 0 -12 10 -15 22 -9 35 -28 34 -43 -3 -15 -34 -17 -33 -33 20 -5 16
-24 16 -24 -1z"/>
<path d="M2119 3723 c-13 -15 -11 -16 18 -10 45 9 51 -9 8 -27 -24 -10 -35
-21 -35 -35 0 -21 18 -28 73 -29 26 0 27 2 27 47 0 26 -5 52 -12 59 -17 17
-63 15 -79 -5z m59 -65 c-7 -19 -38 -22 -38 -4 0 10 9 16 21 16 12 0 19 -5 17
-12z"/>
<path d="M2243 3724 c-8 -21 2 -99 12 -99 6 0 11 17 13 37 2 25 10 41 23 48
10 6 19 15 19 20 0 13 -62 7 -67 -6z"/>
<path d="M2339 3724 c-19 -23 -15 -75 6 -90 11 -8 29 -11 43 -7 18 4 23 2 20
-8 -3 -9 -18 -13 -42 -12 -41 3 -48 -13 -11 -27 34 -13 73 3 80 33 4 13 5 45
3 71 l-3 48 -41 4 c-29 3 -46 -1 -55 -12z m64 -26 c14 -21 2 -48 -22 -48 -24
0 -37 36 -20 56 14 17 28 14 42 -8z"/>
<path d="M2483 3734 c-26 -11 -13 -25 17 -19 23 5 30 3 30 -8 0 -8 -13 -17
-29 -20 -62 -13 -45 -68 20 -64 l40 2 -3 55 c-3 53 -4 55 -33 57 -16 1 -36 0
-42 -3z m47 -73 c0 -14 -18 -23 -30 -16 -6 4 -8 11 -5 16 8 12 35 12 35 0z"/>
<path d="M2600 3679 c0 -33 4 -59 10 -59 10 0 14 18 12 50 -1 22 18 52 31 47
7 -2 14 -23 17 -47 8 -67 30 -64 30 4 0 60 -4 63 -72 64 -27 0 -28 -1 -28 -59z"/>
<path d="M2748 3729 c-20 -11 -24 -59 -8 -90 13 -24 62 -26 81 -3 11 14 9 15
-21 12 -20 -2 -35 2 -37 10 -3 8 7 12 31 12 32 0 36 3 36 25 0 37 -45 56 -82
34z m50 -27 c2 -7 -6 -12 -17 -12 -21 0 -27 11 -14 24 9 9 26 2 31 -12z"/>
<path d="M2872 3728 c-17 -17 -15 -74 4 -92 10 -11 24 -14 41 -10 19 5 24 3
21 -7 -3 -9 -18 -13 -42 -12 -42 3 -48 -13 -9 -28 35 -13 70 2 78 34 4 13 5
45 3 71 l-3 48 -41 4 c-22 2 -46 -2 -52 -8z m61 -30 c14 -22 1 -48 -23 -48
-15 0 -20 7 -20 28 0 44 22 54 43 20z"/>
<path d="M3013 3733 c-24 -9 -13 -23 16 -21 37 4 40 -15 4 -24 -33 -9 -44 -27
-32 -50 7 -13 20 -17 51 -15 l42 3 -3 49 c-1 28 -5 53 -7 57 -6 9 -52 9 -71 1z
m51 -78 c-7 -16 -30 -20 -38 -6 -7 11 4 21 25 21 12 0 16 -5 13 -15z"/>
<path d="M3130 3679 c0 -33 4 -59 9 -59 12 0 21 26 21 60 0 20 6 29 22 33 29
8 15 21 -23 23 -29 2 -29 2 -29 -57z"/>
<path d="M3227 3733 c-15 -14 -6 -25 17 -19 39 10 40 -12 1 -28 -24 -10 -35
-21 -35 -35 0 -21 18 -28 73 -29 26 0 27 2 27 47 0 26 -5 52 -12 59 -13 13
-60 16 -71 5z m53 -73 c0 -12 -28 -25 -36 -17 -9 9 6 27 22 27 8 0 14 -5 14
-10z"/>
<path d="M3350 3725 c-11 -13 -9 -15 18 -13 40 4 41 -15 1 -25 -25 -7 -30 -12
-27 -35 3 -25 7 -27 51 -28 l47 -1 0 47 c0 25 -5 51 -12 58 -17 17 -63 15 -78
-3z m58 -67 c-7 -19 -38 -22 -38 -4 0 10 9 16 21 16 12 0 19 -5 17 -12z"/>
<path d="M3470 3677 c0 -68 23 -77 28 -11 2 21 8 44 13 49 15 15 39 -23 39
-62 0 -18 5 -33 10 -33 6 0 10 3 11 8 0 4 2 23 4 42 5 55 -8 70 -60 68 l-45
-2 0 -59z"/>
<path d="M3717 3734 c-8 -8 1 -24 14 -24 5 0 9 7 9 15 0 15 -12 20 -23 9z"/>
<path d="M3717 3644 c-8 -8 1 -24 14 -24 5 0 9 7 9 15 0 15 -12 20 -23 9z"/>
<path d="M8692 3584 c-18 -12 -22 -25 -22 -68 0 -57 12 -76 46 -76 50 0 74
100 34 140 -24 24 -29 24 -58 4z m43 -65 c0 -34 -4 -44 -17 -47 -15 -3 -18 4
-18 41 0 24 3 47 7 51 16 16 28 -4 28 -45z"/>
<path d="M8818 3589 c-10 -5 -18 -19 -18 -29 0 -24 8 -25 31 -4 19 17 39 12
39 -11 0 -7 -10 -22 -23 -32 -13 -10 -31 -30 -41 -45 l-18 -28 56 0 c31 0 56
5 56 10 0 6 -6 11 -12 11 -7 1 -17 2 -23 4 -5 1 -14 3 -19 3 -4 1 6 18 23 37
37 42 39 59 9 79 -26 18 -36 19 -60 5z"/>
<path d="M9028 3577 c-33 -27 -36 -41 -8 -34 18 5 20 0 20 -49 0 -41 4 -54 15
-54 12 0 15 16 15 80 0 44 -3 80 -7 80 -5 -1 -20 -11 -35 -23z"/>
<path d="M9139 3579 c-15 -15 -18 -24 -10 -32 8 -8 15 -6 24 8 14 18 37 14 37
-7 0 -6 -16 -28 -35 -49 -19 -22 -35 -44 -35 -49 0 -6 23 -10 51 -10 36 0 49
4 46 13 -2 6 -14 11 -26 10 -28 -4 -27 8 4 37 31 29 34 75 6 90 -28 14 -38 13
-62 -11z"/>
<path d="M9339 3579 c-16 -16 -18 -24 -9 -32 8 -9 15 -8 24 6 16 21 32 22 40
1 4 -9 -9 -29 -34 -54 -22 -22 -40 -44 -40 -50 0 -5 22 -10 51 -10 36 0 49 4
46 13 -2 6 -11 12 -20 12 -27 0 -28 11 -2 35 31 29 33 75 6 90 -28 14 -38 13
-62 -11z"/>
<path d="M9467 3582 c-22 -24 -23 -114 -3 -132 42 -34 90 16 82 85 -7 59 -47
82 -79 47z m47 -28 c16 -41 -6 -109 -27 -87 -9 8 -9 88 0 96 11 11 20 8 27 -9z"/>
<path d="M9607 3575 c-32 -28 -35 -39 -7 -32 18 5 20 0 20 -49 0 -41 4 -54 15
-54 12 0 15 15 15 74 0 41 -3 77 -8 79 -4 3 -19 -5 -35 -18z"/>
<path d="M9719 3581 c-19 -16 -22 -22 -12 -32 11 -10 16 -9 26 6 14 18 37 14
37 -7 0 -6 -16 -28 -35 -49 -19 -22 -35 -44 -35 -49 0 -6 23 -10 51 -10 36 0
49 4 46 13 -2 6 -14 11 -26 10 -28 -4 -27 15 4 39 31 24 34 72 6 88 -27 14
-35 13 -62 -9z"/>
<path d="M28160 3494 c-22 -20 -49 -52 -62 -72 -19 -30 -23 -33 -28 -17 -6 17
-7 16 -13 -6 -4 -13 -7 -35 -7 -49 0 -36 -14 -52 -43 -52 -18 0 -24 -5 -20
-15 4 -10 9 -11 16 -4 16 16 30 13 24 -4 -4 -8 -2 -17 3 -20 6 -4 10 1 10 10
0 30 19 5 25 -33 14 -86 33 -99 83 -57 22 18 42 25 74 25 57 0 81 17 76 55 -2
25 -8 30 -33 32 -28 2 -28 1 -5 -5 31 -10 38 -41 14 -59 -10 -7 -35 -13 -56
-13 l-38 0 17 35 c9 19 20 35 25 35 4 0 8 17 7 38 l-1 37 -9 -32 c-5 -18 -14
-33 -20 -33 -6 0 -7 -4 -4 -10 9 -14 -23 -70 -41 -70 -24 0 -71 28 -78 45 -11
30 -6 96 10 130 23 49 83 116 118 131 19 8 24 13 14 14 -10 0 -36 -16 -58 -36z
m-10 -304 c0 -9 -49 -34 -55 -28 -3 2 -8 19 -11 37 l-7 32 37 -17 c20 -10 36
-21 36 -24z"/>
<path d="M8923 3498 c2 -7 14 -13 27 -13 13 0 25 6 28 13 2 8 -7 12 -28 12
-21 0 -30 -4 -27 -12z"/>
<path d="M9253 3498 c2 -7 14 -13 27 -13 13 0 25 6 28 13 2 8 -7 12 -28 12
-21 0 -30 -4 -27 -12z"/>
<path d="M28233 3435 c0 -44 2 -61 4 -37 2 23 2 59 0 80 -2 20 -4 1 -4 -43z"/>
<path d="M1650 3420 l0 -81 56 3 c65 3 88 23 67 58 -7 11 -10 32 -7 49 7 36
-15 51 -75 51 l-41 0 0 -80z m88 33 c-2 -12 -12 -18 -28 -18 -16 0 -26 6 -28
18 -3 13 3 17 28 17 25 0 31 -4 28 -17z m-4 -49 c25 -9 19 -33 -10 -40 -29 -8
-49 7 -41 30 7 17 25 20 51 10z"/>
<path d="M2030 3420 c0 -61 3 -81 13 -77 8 2 12 27 12 77 0 50 -4 75 -12 78
-10 3 -13 -17 -13 -78z"/>
<path d="M2218 3493 c-3 -4 -3 -24 -2 -43 1 -19 3 -52 3 -73 1 -26 5 -37 14
-34 6 2 12 10 12 17 0 22 23 23 35 1 6 -12 17 -21 25 -21 11 0 10 8 -7 35 -20
34 -20 37 -3 55 15 17 16 20 3 20 -9 0 -21 -7 -28 -15 -18 -21 -32 -8 -28 27
3 28 -15 50 -24 31z"/>
<path d="M2550 3421 c0 -65 3 -81 15 -81 10 0 15 11 15 35 0 32 2 35 30 35 23
0 30 -5 31 -20 3 -39 4 -43 16 -47 14 -5 19 33 15 105 -4 59 -25 68 -30 14 -3
-28 -7 -32 -32 -32 -25 0 -29 4 -32 32 -2 17 -9 33 -15 36 -10 3 -13 -17 -13
-77z"/>
<path d="M2710 3486 c0 -9 7 -16 16 -16 9 0 14 5 12 12 -6 18 -28 21 -28 4z"/>
<path d="M4710 3460 c-14 -14 -20 -33 -20 -65 0 -44 24 -85 50 -85 26 0 50 41
50 85 0 44 -24 85 -50 85 -5 0 -19 -9 -30 -20z m48 -71 c-2 -31 -7 -44 -18
-44 -20 0 -27 84 -8 96 21 13 30 -5 26 -52z"/>
<path d="M3862 3458 c-7 -7 -12 -18 -12 -25 0 -18 27 -16 34 2 6 16 36 10 36
-7 0 -6 -18 -31 -41 -55 -48 -52 -43 -66 21 -61 51 4 69 28 21 28 -17 0 -31 2
-31 4 0 3 14 18 30 34 46 46 36 92 -20 92 -14 0 -31 -5 -38 -12z"/>
<path d="M3993 3463 c-15 -5 -18 -43 -4 -43 5 0 14 6 21 14 11 15 40 11 40 -4
0 -5 -18 -30 -40 -55 -22 -26 -38 -51 -35 -56 7 -10 65 -12 89 -3 26 10 18 24
-14 24 -34 0 -39 13 -12 32 68 48 31 122 -45 91z"/>
<path d="M4192 3458 c-7 -7 -12 -36 -12 -64 0 -42 4 -56 21 -67 43 -30 79 5
79 77 0 52 -56 86 -88 54z m58 -63 c0 -32 -20 -61 -33 -48 -4 3 -7 25 -7 48 0
23 3 45 7 48 13 13 33 -16 33 -48z"/>
<path d="M4312 3458 c-15 -15 -16 -38 -1 -38 7 0 17 7 24 17 7 9 17 13 23 9
21 -13 13 -39 -24 -72 -20 -19 -34 -39 -32 -46 6 -17 90 -17 96 0 2 8 -7 12
-27 12 -39 0 -39 5 -1 37 47 39 36 93 -20 93 -14 0 -31 -5 -38 -12z"/>
<path d="M4576 3454 c-25 -24 -3 -44 22 -21 17 15 21 16 31 3 10 -12 5 -23
-29 -60 -23 -25 -39 -50 -35 -56 7 -11 64 -14 89 -4 22 9 10 24 -20 24 -31 0
-30 10 1 40 19 18 25 33 23 55 -3 26 -8 30 -34 33 -20 2 -38 -3 -48 -14z"/>
<path d="M4848 3451 c-22 -22 -23 -31 -4 -31 11 0 16 -15 18 -52 2 -39 7 -53
18 -53 12 0 16 17 18 78 3 69 1 77 -15 76 -10 0 -26 -8 -35 -18z"/>
<path d="M4940 3460 c0 -5 11 -10 24 -10 35 0 38 -12 15 -56 -20 -39 -22 -73
-5 -77 5 -1 15 16 22 38 8 22 21 52 29 67 24 42 19 48 -35 48 -27 0 -50 -4
-50 -10z"/>
<path d="M2108 3449 c-28 -16 -21 -29 12 -22 37 7 42 -14 5 -23 -31 -8 -47
-27 -39 -47 8 -21 22 -25 65 -20 l36 5 -5 46 c-2 26 -7 50 -11 53 -13 14 -47
18 -63 8z m42 -74 c0 -8 -9 -15 -20 -15 -22 0 -27 15 -7 23 21 9 27 7 27 -8z"/>
<path d="M2810 3451 c-34 -6 -35 -7 -38 -58 -2 -43 0 -53 12 -53 11 0 16 9 16
29 0 42 10 61 31 61 16 0 19 -8 19 -45 0 -33 4 -45 15 -45 11 0 15 12 15 50 0
57 -14 69 -70 61z"/>
<path d="M3067 3447 c-21 -15 -26 -70 -7 -92 7 -8 26 -15 42 -15 19 0 28 -4
25 -12 -2 -8 -18 -12 -42 -10 -34 3 -37 1 -26 -12 17 -21 65 -20 85 0 11 11
16 35 16 80 0 61 -1 64 -24 64 -13 0 -30 2 -38 5 -7 3 -22 0 -31 -8z m58 -28
c11 -16 -4 -59 -20 -59 -18 0 -34 28 -28 51 6 20 38 26 48 8z"/>
<path d="M3213 3449 c-35 -13 -29 -32 7 -24 40 9 38 -8 -2 -26 -38 -17 -44
-31 -23 -52 11 -11 26 -14 53 -10 20 3 37 6 38 7 1 1 -2 23 -5 50 -7 54 -27
70 -68 55z m47 -68 c0 -5 -7 -14 -15 -21 -12 -10 -19 -10 -28 -1 -9 9 -9 14 3
21 19 12 40 13 40 1z"/>
<path d="M1810 3424 c-21 -55 24 -109 71 -84 29 16 23 30 -11 24 -23 -5 -30
-3 -30 10 0 12 9 16 35 16 37 0 42 9 25 41 -8 13 -21 19 -46 19 -28 0 -36 -5
-44 -26z m61 -9 c-1 -15 -24 -12 -29 3 -3 9 2 13 12 10 10 -1 17 -7 17 -13z"/>
<path d="M1940 3394 c0 -62 20 -73 27 -14 2 21 12 42 26 52 22 18 22 18 -15
18 l-38 0 0 -56z"/>
<path d="M2340 3406 c0 -48 22 -81 47 -72 8 3 26 6 39 6 22 0 24 3 24 55 0 41
-4 55 -14 55 -10 0 -16 -14 -18 -42 -2 -35 -7 -43 -23 -43 -16 0 -21 8 -23 43
-2 28 -8 42 -18 42 -10 0 -14 -12 -14 -44z"/>
<path d="M2710 3395 c0 -42 3 -55 15 -55 12 0 15 13 15 55 0 42 -3 55 -15 55
-12 0 -15 -13 -15 -55z"/>
<path d="M2922 3438 c-7 -7 -12 -26 -12 -43 0 -38 16 -55 52 -55 15 0 28 -5
28 -10 0 -17 -27 -23 -48 -11 -23 12 -36 3 -21 -16 15 -18 64 -17 83 3 11 11
16 35 16 80 l0 64 -43 0 c-24 0 -48 -5 -55 -12z m66 -39 c2 -17 -3 -29 -13
-33 -25 -9 -35 1 -35 35 0 26 3 30 23 27 15 -2 23 -11 25 -29z"/>
<path d="M3720 3435 c0 -8 5 -15 10 -15 6 0 10 7 10 15 0 8 -4 15 -10 15 -5 0
-10 -7 -10 -15z"/>
<path d="M4102 3378 c7 -20 58 -23 58 -4 0 11 -10 16 -31 16 -20 0 -29 -4 -27
-12z"/>
<path d="M4430 3375 c0 -12 7 -15 25 -13 14 2 26 8 26 13 0 6 -12 11 -26 13
-18 2 -25 -1 -25 -13z"/>
<path d="M3717 3364 c-8 -8 1 -24 14 -24 5 0 9 7 9 15 0 15 -12 20 -23 9z"/>
<path d="M27612 3341 c4 -13 18 -16 19 -4 0 4 -5 9 -11 12 -7 2 -11 -2 -8 -8z"/>
<path d="M27678 3323 c6 -2 18 -2 25 0 6 3 1 5 -13 5 -14 0 -19 -2 -12 -5z"/>
<path d="M27738 3313 c7 -3 16 -2 19 1 4 3 -2 6 -13 5 -11 0 -14 -3 -6 -6z"/>
<path d="M27798 3303 c7 -3 16 -2 19 1 4 3 -2 6 -13 5 -11 0 -14 -3 -6 -6z"/>
<path d="M27940 3280 c-23 -7 -23 -8 -3 -9 12 -1 25 4 28 9 3 6 5 10 3 9 -2
-1 -14 -5 -28 -9z"/>
<path d="M8901 3119 c-13 -33 -39 -81 -58 -106 -92 -121 -83 -184 29 -199 27
-4 52 -12 55 -18 4 -6 6 -58 4 -116 -4 -134 12 -122 19 13 4 72 9 101 17 100
7 -2 58 -10 115 -18 57 -9 145 -26 195 -37 75 -17 95 -18 108 -8 12 10 18 10
32 -1 13 -11 17 -11 20 -1 8 21 23 13 23 -13 0 -30 16 -33 25 -4 10 29 14 20
30 -56 23 -106 39 -115 105 -60 37 31 48 35 99 35 72 0 101 19 101 64 0 40
-14 53 -60 58 -29 2 -34 7 -32 23 8 46 14 237 8 260 -4 17 -13 25 -27 25 -24
0 -134 -101 -155 -142 -16 -31 -34 -37 -34 -11 0 40 -16 -5 -25 -70 l-10 -71
-35 -2 c-19 -2 -50 -9 -68 -17 -28 -12 -40 -12 -71 -1 -21 7 -107 24 -191 39
-84 14 -157 28 -161 31 -5 3 -9 86 -9 185 0 201 -8 222 -49 118z m30 -145 c-1
-82 -4 -150 -6 -152 -2 -2 -29 2 -60 9 -91 20 -92 51 -6 176 22 33 41 63 41
66 0 15 21 59 26 54 3 -3 5 -72 5 -153z m789 -48 c0 -136 -11 -176 -48 -177
-26 0 -26 -1 -4 -9 28 -12 28 -17 -4 -63 -28 -41 -39 -42 -99 -8 -48 27 -59
125 -23 200 25 52 152 186 168 176 6 -4 10 -51 10 -119z m73 -200 c17 -17 11
-62 -9 -70 -25 -10 -114 -19 -114 -12 0 9 30 68 42 84 14 16 63 15 81 -2z
m-200 -88 c33 -12 34 -22 5 -42 -31 -22 -46 -20 -53 7 -18 62 -18 60 1 52 11
-4 31 -12 47 -17z"/>
<path d="M15135 2606 c-161 -38 -281 -132 -354 -278 -102 -202 -67 -430 91
-594 204 -213 541 -214 745 -2 l60 63 1026 -3 1027 -2 0 285 0 285 -1018 0
-1018 0 -16 28 c-26 42 -97 111 -153 148 -105 69 -268 98 -390 70z m-3 -363
l108 -108 109 109 c110 109 142 127 149 80 2 -14 -27 -51 -104 -128 l-107
-107 107 -108 c109 -109 126 -141 82 -149 -13 -3 -52 29 -127 104 l-108 108
-107 -108 c-78 -78 -113 -106 -128 -104 -47 7 -30 39 80 149 l109 109 -108
108 c-99 99 -118 127 -100 145 18 18 46 -1 145 -100z m1658 -133 l0 -200 -40
0 -40 0 0 200 0 200 40 0 40 0 0 -200z m410 136 l0 -64 31 15 c50 25 124 13
162 -26 32 -31 32 -32 35 -146 l4 -115 -41 0 -41 0 0 89 c0 108 -15 135 -75
135 -60 0 -75 -27 -75 -135 l0 -89 -40 0 -40 0 0 200 0 200 40 0 40 0 0 -64z
m-907 40 c35 -14 87 -69 87 -91 0 -7 -18 -17 -39 -22 -37 -10 -41 -9 -60 17
-11 16 -33 31 -49 35 -39 8 -82 -10 -82 -34 0 -16 12 -24 58 -36 135 -38 160
-53 182 -110 10 -26 13 -28 21 -12 14 24 54 43 122 57 45 9 57 15 55 28 -2 12
-15 18 -41 20 -29 3 -42 -2 -59 -21 -18 -19 -30 -23 -56 -20 -42 7 -45 13 -23
50 36 58 145 82 212 47 45 -23 59 -67 59 -184 l0 -100 -40 0 c-22 0 -40 4 -40
9 0 6 -12 3 -27 -5 -16 -7 -47 -14 -70 -14 -52 0 -103 38 -103 78 0 26 0 26
-18 -7 -24 -47 -73 -71 -146 -71 -96 0 -164 42 -181 113 -6 21 -2 25 26 31 49
10 54 8 66 -23 20 -54 127 -66 157 -18 16 25 -9 44 -84 63 -123 31 -160 61
-160 126 1 63 61 107 148 108 29 0 67 -6 85 -14z m738 -92 c45 -23 59 -67 59
-184 l0 -100 -40 0 c-22 0 -40 4 -40 9 0 6 -12 3 -27 -5 -72 -37 -173 2 -173
68 0 61 32 87 133 108 45 9 57 15 55 28 -2 12 -15 18 -41 20 -29 3 -42 -2 -59
-21 -18 -19 -30 -23 -56 -20 -42 7 -45 13 -23 49 36 59 145 83 212 48z"/>
<path d="M16575 2035 c-5 -2 -29 -9 -52 -15 -32 -8 -43 -16 -43 -30 0 -16 7
-20 38 -20 44 0 82 23 82 51 0 19 -5 21 -25 14z"/>
<path d="M16985 2035 c-5 -2 -29 -9 -52 -15 -32 -8 -43 -16 -43 -30 0 -16 7
-20 38 -20 44 0 82 23 82 51 0 19 -5 21 -25 14z"/>
<path d="M24184 2605 c-92 -20 -171 -63 -246 -134 -214 -200 -220 -524 -16
-737 204 -213 541 -214 745 -2 l60 63 1026 -3 1027 -2 0 285 0 285 -1020 0
c-660 0 -1020 3 -1020 10 0 5 -29 41 -65 79 -131 139 -310 196 -491 156z m8
-362 l108 -108 109 109 c110 109 142 127 149 80 2 -14 -27 -51 -104 -128
l-107 -107 107 -108 c109 -109 126 -141 82 -149 -13 -3 -52 29 -127 104 l-108
108 -107 -108 c-78 -78 -113 -106 -128 -104 -47 7 -30 39 80 149 l109 109
-108 108 c-99 99 -118 127 -100 145 18 18 46 -1 145 -100z m1648 -133 l0 -200
-40 0 -40 0 0 200 0 200 40 0 40 0 0 -200z m410 136 l0 -64 31 15 c50 25 124
13 162 -26 32 -31 32 -32 35 -146 l4 -115 -41 0 -41 0 0 89 c0 108 -15 135
-75 135 -60 0 -75 -27 -75 -135 l0 -89 -40 0 -40 0 0 200 0 200 40 0 40 0 0
-64z m-907 40 c35 -14 87 -69 87 -91 0 -7 -18 -17 -39 -22 -37 -10 -41 -9 -60
17 -11 16 -33 31 -49 35 -39 8 -82 -10 -82 -34 0 -16 12 -24 58 -36 135 -38
160 -53 182 -110 10 -26 13 -28 21 -12 14 24 54 43 122 57 45 9 57 15 55 28
-2 12 -15 18 -41 20 -29 3 -42 -2 -59 -21 -18 -19 -30 -23 -56 -20 -42 7 -45
13 -23 50 36 58 145 82 212 47 45 -23 59 -67 59 -184 l0 -100 -40 0 c-22 0
-40 4 -40 9 0 6 -12 3 -27 -5 -16 -7 -47 -14 -70 -14 -52 0 -103 38 -103 78 0
26 0 26 -18 -7 -24 -47 -73 -71 -146 -71 -96 0 -164 42 -181 113 -6 21 -2 25
26 31 49 10 54 8 66 -23 20 -54 127 -66 157 -18 16 25 -9 44 -84 63 -123 31
-160 61 -160 126 1 63 61 107 148 108 29 0 67 -6 85 -14z m738 -92 c45 -23 59
-67 59 -184 l0 -100 -40 0 c-22 0 -40 4 -40 9 0 6 -12 3 -27 -5 -72 -37 -173
2 -173 68 0 61 32 87 133 108 45 9 57 15 55 28 -2 12 -15 18 -41 20 -29 3 -42
-2 -59 -21 -18 -19 -30 -23 -56 -20 -42 7 -45 13 -23 49 36 59 145 83 212 48z"/>
<path d="M25625 2035 c-5 -2 -29 -9 -52 -15 -32 -8 -43 -16 -43 -30 0 -16 7
-20 38 -20 44 0 82 23 82 51 0 19 -5 21 -25 14z"/>
<path d="M26035 2035 c-5 -2 -29 -9 -52 -15 -32 -8 -43 -16 -43 -30 0 -16 7
-20 38 -20 44 0 82 23 82 51 0 19 -5 21 -25 14z"/>
<path d="M4515 1866 c-213 -41 -386 -174 -485 -374 -45 -91 -63 -174 -63 -292
0 -195 67 -354 205 -486 135 -130 280 -188 468 -188 201 0 358 69 498 219 111
119 169 255 179 420 12 206 -63 384 -224 535 -151 141 -374 205 -578 166z
m567 -363 c44 -40 34 -52 -280 -366 -268 -268 -301 -297 -330 -297 -51 0 -79
20 -199 143 -121 123 -133 147 -93 187 37 37 57 26 174 -90 l111 -109 275 274
c287 286 300 296 342 258z"/>
<path d="M5620 1195 l0 -245 138 0 c202 1 253 18 281 96 19 54 8 110 -30 145
-28 26 -29 28 -10 38 47 26 46 124 -2 169 -36 34 -80 42 -234 42 l-143 0 0
-245z m294 139 c9 -8 16 -26 16 -39 0 -44 -24 -55 -116 -55 l-84 0 0 55 0 55
84 0 c64 0 88 -4 100 -16z m7 -184 c13 -7 19 -21 19 -45 0 -55 -19 -65 -121
-65 l-89 0 0 60 0 60 86 0 c47 0 94 -5 105 -10z"/>
<path d="M6183 1314 c-122 -44 -162 -212 -74 -307 42 -46 79 -61 156 -61 53 0
80 5 111 21 64 34 69 45 35 77 l-30 28 -33 -23 c-25 -18 -46 -24 -86 -24 -46
0 -57 4 -78 28 -13 15 -24 32 -24 38 0 5 63 9 150 9 l150 0 0 28 c0 113 -92
204 -205 201 -16 0 -49 -7 -72 -15z m153 -95 c45 -42 33 -49 -76 -49 -55 0
-100 3 -100 8 0 15 33 54 54 63 33 14 95 3 122 -22z"/>
<path d="M6669 1321 c-14 -5 -35 -14 -47 -20 -18 -10 -22 -9 -22 4 0 11 -12
15 -50 15 l-50 0 0 -185 0 -185 50 0 50 0 0 114 c0 105 2 117 23 141 16 20 35
28 69 32 42 5 50 3 78 -25 30 -30 30 -31 30 -146 l0 -116 50 0 50 0 0 122 c0
141 -17 192 -75 228 -37 23 -116 34 -156 21z"/>
<path d="M7040 1319 c-47 -15 -87 -45 -106 -81 -8 -16 -14 -31 -12 -33 2 -1
21 -7 43 -12 37 -9 42 -8 65 19 35 41 99 49 130 18 28 -28 14 -46 -43 -55
-132 -20 -188 -55 -190 -118 -2 -75 66 -124 158 -113 27 3 62 15 77 26 l28 21
0 -21 c0 -17 6 -20 45 -20 l45 0 0 133 c0 150 -12 188 -67 220 -39 22 -125 30
-173 16z m140 -224 c0 -41 -24 -61 -85 -70 -28 -5 -46 -2 -60 9 -31 23 -8 48
65 68 34 9 65 20 68 23 10 10 12 5 12 -30z"/>
<path d="M7465 1310 c-47 -24 -45 -24 -45 -5 0 11 -12 15 -45 15 l-45 0 0
-185 0 -185 49 0 49 0 4 120 c3 108 5 122 25 142 17 17 35 23 70 23 47 0 47 0
55 39 6 29 5 42 -4 48 -23 14 -73 9 -113 -12z"/>
</g>
</svg>
